<svg width="19" height="15" viewBox="0 0 19 15" fill="none" xmlns="http://www.w3.org/2000/svg">
<path d="M10.5764 0.399708C10.8309 0.143775 11.176 0 11.5359 0C11.8958 0 12.2409 0.143775 12.4954 0.399708L18.6026 6.54305C18.8571 6.79906 19 7.14624 19 7.50824C19 7.87024 18.8571 8.21742 18.6026 8.47343L12.4954 14.6168C12.2394 14.8655 11.8966 15.0031 11.5408 14.9999C11.1849 14.9968 10.8445 14.8533 10.5929 14.6001C10.3413 14.347 10.1985 14.0046 10.1955 13.6467C10.1924 13.2887 10.3292 12.9439 10.5764 12.6864L14.2502 8.87343H1.35716C0.997221 8.87343 0.652022 8.7296 0.397504 8.47357C0.142986 8.21755 0 7.87031 0 7.50824C0 7.14617 0.142986 6.79893 0.397504 6.54291C0.652022 6.28689 0.997221 6.14305 1.35716 6.14305H14.2502L10.5764 2.33008C10.3219 2.07407 10.179 1.7269 10.179 1.3649C10.179 1.0029 10.3219 0.655719 10.5764 0.399708Z" fill="#6E507E"/>
</svg>
