<svg width="24" height="19" viewBox="0 0 24 19" fill="none" xmlns="http://www.w3.org/2000/svg">
<path d="M12.9883 0.487977C13.3009 0.175526 13.7247 0 14.1667 0C14.6086 0 15.0325 0.175526 15.345 0.487977L22.845 7.98798C23.1575 8.30052 23.333 8.72437 23.333 9.16631C23.333 9.60825 23.1575 10.0321 22.845 10.3446L15.345 17.8446C15.0307 18.1482 14.6097 18.3162 14.1727 18.3124C13.7357 18.3086 13.3176 18.1334 13.0086 17.8243C12.6996 17.5153 12.5243 17.0973 12.5205 16.6603C12.5167 16.2233 12.6847 15.8023 12.9883 15.488L17.5 10.833H1.66667C1.22464 10.833 0.800716 10.6574 0.488155 10.3448C0.175595 10.0323 0 9.60834 0 9.16631C0 8.72428 0.175595 8.30036 0.488155 7.9878C0.800716 7.67524 1.22464 7.49964 1.66667 7.49964H17.5L12.9883 2.84464C12.6759 2.5321 12.5004 2.10825 12.5004 1.66631C12.5004 1.22437 12.6759 0.800523 12.9883 0.487977Z" fill="white"/>
</svg>
