<svg width="1512" height="803" viewBox="0 0 1512 803" fill="none" xmlns="http://www.w3.org/2000/svg">
<g opacity="0.2">
<mask id="mask0_75_269" style="mask-type:luminance" maskUnits="userSpaceOnUse" x="-303" y="0" width="2118" height="803">
<path d="M1814.91 0H-303V802.806H1814.91V0Z" fill="white"/>
</mask>
<g mask="url(#mask0_75_269)">
<mask id="mask1_75_269" style="mask-type:luminance" maskUnits="userSpaceOnUse" x="-303" y="0" width="2118" height="803">
<path d="M1814.91 0H-303V802.806H1814.91V0Z" fill="white"/>
</mask>
<g mask="url(#mask1_75_269)">
<mask id="mask2_75_269" style="mask-type:luminance" maskUnits="userSpaceOnUse" x="139" y="197" width="70" height="89">
<path d="M208.095 197.379H139.582V285.341H208.095V197.379Z" fill="white"/>
</mask>
<g mask="url(#mask2_75_269)">
<path d="M179.545 240.478C179.545 245.27 183.67 249.085 188.861 249.085C194.016 249.085 198.247 245.205 198.247 240.478C198.247 239.337 197.998 238.228 197.536 237.185C197.074 236.142 196.398 235.196 195.509 234.414C194.621 233.599 193.625 232.979 192.452 232.555C191.314 232.132 190.105 231.903 188.861 231.903C183.634 231.903 179.545 235.685 179.545 240.51V240.478ZM169.946 257.692C166.888 257.692 163.795 257.594 160.737 257.725C159.315 257.79 157.857 258.083 156.577 258.605C152.666 260.202 150.569 264.506 151.635 268.32C152.773 272.331 156.684 275.004 161.199 274.841C165.573 274.645 169.519 271.646 169.91 267.701C170.23 264.441 169.981 261.148 169.981 257.692H169.946ZM169.981 206.115C166.497 206.115 163.119 205.919 159.742 206.147C154.657 206.506 151.066 210.549 151.386 215.243C151.671 219.71 155.724 223.198 160.702 223.231C162.799 223.231 164.897 223.231 166.995 223.231H169.981V206.115ZM179.617 223.231C182.852 223.231 185.91 223.231 189.003 223.231C194.123 223.166 198.212 219.449 198.247 214.754C198.247 213.613 198.034 212.537 197.607 211.494C197.145 210.451 196.505 209.505 195.652 208.69C194.798 207.875 193.803 207.256 192.665 206.799C191.527 206.343 190.354 206.115 189.11 206.082C186.123 206.017 183.172 206.082 180.185 206.082C180.008 206.082 179.83 206.115 179.617 206.147V223.231ZM170.017 249.052V231.871C166.817 231.871 163.688 231.871 160.559 231.871C155.653 231.871 151.529 235.587 151.351 240.087C151.173 244.684 154.942 248.759 159.848 249.02C163.19 249.183 166.533 249.02 170.017 249.02V249.052ZM148.222 253.388C140.258 246.835 139.582 234.772 148.222 227.502C145.555 225.22 143.707 222.481 142.64 219.221C140.009 211.07 144.987 201.648 153.697 198.747C155.795 198.029 158.142 197.54 160.346 197.508C169.946 197.377 179.545 197.41 189.181 197.475C198.14 197.54 205.927 203.637 207.313 211.755C208.273 217.493 206.638 222.546 202.158 226.752C201.909 227.013 201.554 227.209 201.234 227.437C205.074 230.86 207.349 234.772 207.527 239.63C207.705 243.901 206.425 247.683 203.58 251.074C198.923 256.616 189.465 260.137 179.545 255.475C179.545 255.899 179.51 256.257 179.474 256.616C179.403 260.463 179.581 264.31 179.261 268.157C178.657 275.265 172.612 281.459 165.075 283.024C157.075 284.687 148.791 281.557 144.702 275.297C140.116 268.288 141.253 259.876 147.546 254.008C147.76 253.812 147.938 253.617 148.151 253.388H148.222Z" fill="#52256A"/>
</g>
<mask id="mask3_75_269" style="mask-type:luminance" maskUnits="userSpaceOnUse" x="-40" y="307" width="89" height="82">
<path d="M48.3851 307.312H-39.7188V388.102H48.3851V307.312Z" fill="white"/>
</mask>
<g mask="url(#mask3_75_269)">
<path d="M-2.84826 341.741L-5.58594 349.761H3.51599L0.707183 341.741C0.138313 340.144 -0.323888 338.383 -0.786096 336.753C-0.892759 336.362 -0.999436 336.003 -1.1061 335.645H-1.21276C-1.39053 336.297 -1.56831 336.981 -1.74608 337.699C-2.10162 339.068 -2.45717 340.47 -2.88382 341.741H-2.84826Z" fill="#52256A"/>
<path fill-rule="evenodd" clip-rule="evenodd" d="M7.81779 363.486L4.61789 354.26H-6.65286L-9.71054 363.486H-16.3948L-5.01736 330.949H3.26683L14.7865 363.486H7.81779ZM16.7064 333.394C16.7064 331.568 18.1641 330.166 20.333 330.166C22.5018 330.166 23.924 331.568 23.9595 333.394C23.9595 335.187 22.5373 336.589 20.2618 336.589C17.9864 336.589 16.6708 335.187 16.6708 333.394H16.7064ZM23.604 339.947V363.454H17.0619V339.947H23.604ZM-20.2346 308.975C-3.73739 307.279 13.3287 307.279 29.8616 308.975C38.9635 309.92 46.2877 316.473 47.3543 324.852C49.3454 340.338 49.3454 355.955 47.3543 371.441C46.2877 379.82 38.9635 386.373 29.8616 387.319C13.3643 389.014 -3.70184 389.014 -20.2346 387.319C-29.3366 386.373 -36.6608 379.82 -37.7274 371.441C-39.7185 355.955 -39.7185 340.338 -37.7274 324.852C-36.6608 316.473 -29.3366 309.92 -20.2346 308.975Z" fill="#52256A"/>
</g>
<mask id="mask4_75_269" style="mask-type:luminance" maskUnits="userSpaceOnUse" x="130" y="-1" width="87" height="71">
<path d="M216.769 -0.78125H130.621V69.4121H216.769V-0.78125Z" fill="white"/>
</mask>
<g mask="url(#mask4_75_269)">
<path d="M164.043 17.6094C162.3 17.6094 161.056 17.7398 160.416 17.9028V28.629C161.198 28.8247 162.194 28.8573 163.474 28.8573C168.202 28.8573 171.047 26.7381 171.047 23.0214C171.047 19.3047 168.38 17.6094 164.043 17.6094Z" fill="#52256A"/>
<path fill-rule="evenodd" clip-rule="evenodd" d="M185.411 45.6139C182.389 45.6139 179.687 44.8966 177.838 43.9837L179.083 39.8106C180.505 40.6257 183.243 41.4407 185.482 41.4407C188.256 41.4407 189.465 40.3975 189.465 38.8977C189.465 37.398 188.433 36.5504 185.376 35.5723C180.505 34.0074 178.443 31.5622 178.514 28.8888C178.514 24.846 182.14 21.6836 187.936 21.6836C190.709 21.6836 193.127 22.3356 194.549 23.0529L193.304 27.1282C192.238 26.574 190.247 25.8241 188.042 25.8241C185.838 25.8241 184.558 26.8022 184.558 28.2367C184.558 29.6712 185.731 30.3885 188.931 31.4318C193.447 32.9315 195.544 35.0506 195.58 38.4413C195.58 42.5818 192.06 45.6465 185.447 45.6465L185.411 45.6139ZM160.381 45.0922H154.123V13.859C156.363 13.4677 159.492 13.2069 163.759 13.2069C168.381 13.2069 171.758 14.0872 173.963 15.7825C176.025 17.3474 177.34 19.8252 177.34 22.7921C177.34 25.7589 176.309 28.3019 174.354 29.9972C171.83 32.312 167.883 33.3879 163.439 33.3879C162.265 33.3879 161.199 33.3553 160.381 33.1923V45.1248V45.0922ZM149.537 -7.95217C165.608 -9.6149 182.211 -9.6149 198.282 -7.95217C207.135 -7.0393 214.246 -0.64919 215.313 7.46885C217.233 22.5312 217.233 37.7567 215.313 52.8191C214.282 60.9697 207.135 67.3598 198.282 68.2401C182.211 69.8702 165.608 69.8702 149.537 68.2401C140.684 67.3272 133.573 60.9371 132.506 52.8191C130.586 37.7567 130.586 22.5312 132.506 7.46885C133.537 -0.681793 140.684 -7.0719 149.537 -7.95217Z" fill="#52256A"/>
</g>
<mask id="mask5_75_269" style="mask-type:luminance" maskUnits="userSpaceOnUse" x="134" y="412" width="81" height="74">
<path d="M214.317 412.129H134.035V485.746H214.317V412.129Z" fill="white"/>
</mask>
<g mask="url(#mask5_75_269)">
<path d="M161.129 443.001L158.676 450.173H166.853L164.365 443.001C163.867 441.566 163.44 440.001 163.049 438.534C162.942 438.208 162.871 437.849 162.765 437.523H162.658C162.48 438.11 162.338 438.73 162.16 439.349C161.84 440.555 161.52 441.827 161.129 442.968V443.001Z" fill="#52256A"/>
<path d="M188.079 444.566C184.488 444.566 182.995 447.566 182.746 449.718H192.844C192.879 447.761 191.955 444.566 188.079 444.566Z" fill="#52256A"/>
<path fill-rule="evenodd" clip-rule="evenodd" d="M198.318 451.185C198.318 452.196 198.212 452.946 198.141 453.435H182.746C182.888 457.249 186.159 458.88 189.821 458.88C192.523 458.88 194.443 458.521 196.185 457.934L197.038 461.618C195.047 462.368 192.31 462.955 189.003 462.955C181.537 462.955 177.164 458.717 177.164 452.261C177.164 446.425 181.039 440.916 188.399 440.916C195.758 440.916 198.318 446.556 198.318 451.185ZM170.728 462.466L167.848 454.185H157.751L155.013 462.466H149.004L159.209 433.287H166.639L176.986 462.466H170.764H170.728ZM151.493 413.595C166.284 412.062 181.608 412.062 196.398 413.595C204.54 414.442 211.118 420.311 212.078 427.809C213.856 441.698 213.856 455.685 212.078 469.573C211.118 477.072 204.54 482.973 196.398 483.788C181.608 485.32 166.284 485.32 151.493 483.788C143.351 482.94 136.774 477.072 135.814 469.573C134.036 455.685 134.036 441.665 135.814 427.809C136.774 420.311 143.351 414.41 151.493 413.595Z" fill="#52256A"/>
</g>
<mask id="mask6_75_269" style="mask-type:luminance" maskUnits="userSpaceOnUse" x="-49" y="700" width="108" height="99">
<path d="M58.8721 700.043H-48.8223V798.796H58.8721V700.043Z" fill="white"/>
</mask>
<g mask="url(#mask6_75_269)">
<path d="M-5.83809 733.656C-8.00691 733.656 -9.50021 733.819 -10.3535 734.015V747.284C-9.39355 747.512 -8.14914 747.578 -6.54919 747.578C-0.718268 747.578 2.83717 744.969 2.83717 740.372C2.83717 735.775 -0.469371 733.689 -5.83809 733.689V733.656Z" fill="#52256A"/>
<path fill-rule="evenodd" clip-rule="evenodd" d="M21.5397 767.661H13.7533V748.458C13.7533 744.611 13.6822 741.872 13.5044 739.329H20.2953L20.5442 744.741H20.7931C22.3219 740.731 25.9129 738.71 29.2195 738.71C29.9661 738.71 30.4283 738.775 31.0683 738.873V745.621C30.4283 745.491 29.7528 745.393 28.7928 745.393C25.0596 745.393 22.4997 747.61 21.8242 750.805C21.6819 751.457 21.5753 752.207 21.5753 753.022V767.661H21.5397ZM-10.3526 767.661H-18.1035V728.994C-15.3302 728.538 -11.4548 728.179 -6.19275 728.179C-0.468485 728.179 3.69139 729.287 6.42908 731.374C8.95345 733.298 10.6245 736.362 10.6245 740.046C10.6245 743.73 9.34455 746.86 6.96241 748.947C3.86917 751.783 -1.03735 753.12 -6.54829 753.12C-8.00602 753.12 -9.32153 753.055 -10.3526 752.892V767.661ZM-25.3566 702.032C-5.48166 700.01 15.0688 700.01 34.9437 702.032C45.8945 703.14 54.712 711.063 55.992 721.137C58.3741 739.785 58.3741 758.597 55.992 777.213C54.712 787.287 45.8945 795.177 34.9437 796.318C15.0688 798.34 -5.48166 798.34 -25.3566 796.318C-36.3073 795.21 -45.1248 787.287 -46.4048 777.213C-48.7869 758.565 -48.7869 739.753 -46.4048 721.137C-45.1248 711.063 -36.3073 703.173 -25.3566 702.032Z" fill="#52256A"/>
</g>
<mask id="mask7_75_269" style="mask-type:luminance" maskUnits="userSpaceOnUse" x="-36" y="112" width="82" height="77">
<path d="M45.2194 112.805H-35.0625V188.214H45.2194V112.805Z" fill="white"/>
</mask>
<g mask="url(#mask7_75_269)">
<path d="M45.9308 142.963L37.0778 112.773L4.04773 120.859L-0.823238 128.749L-10.7429 128.684L-34.9199 150.788L-10.7429 172.893L-0.823238 172.827L4.08329 180.717L37.1133 188.803L45.9664 158.613L40.9532 150.788L45.9664 142.963H45.9308ZM25.2026 124.087L10.6964 147.039H-18.316L-0.0765986 130.02L25.167 124.087H25.2026ZM10.6964 154.537L25.2026 177.49L-0.0765986 171.556L-18.316 154.537H10.6964ZM17.7717 150.788L32.2779 127.836L39.2822 150.788L32.2779 173.74L17.7717 150.788Z" fill="#52256A"/>
</g>
<mask id="mask8_75_269" style="mask-type:luminance" maskUnits="userSpaceOnUse" x="-36" y="507" width="82" height="75">
<path d="M45.2194 507.949H-35.0625V581.566H45.2194V507.949Z" fill="white"/>
</mask>
<g mask="url(#mask8_75_269)">
<path d="M3.79849 530.478V547.92L-8.78778 539.183L3.79849 530.478ZM3.79849 518.643L-14.512 535.238L-25.5339 527.609L-30.0849 529.011L-18.8853 539.183L-30.0849 549.355L-25.5339 550.756L-14.512 543.127L3.79849 559.722L14.7493 555.451V522.914L3.79849 518.643ZM24.74 507.949V570.774L-35.0625 562.591L24.74 581.044L44.6861 573.448V515.546L24.74 507.949Z" fill="#52256A"/>
</g>
<mask id="mask9_75_269" style="mask-type:luminance" maskUnits="userSpaceOnUse" x="122" y="612" width="103" height="95">
<path d="M224.378 612.766H122.586V706.107H224.378V612.766Z" fill="white"/>
</mask>
<g mask="url(#mask9_75_269)">
<path fill-rule="evenodd" clip-rule="evenodd" d="M132.505 621.503L140.825 682.633L173.713 697.695L206.6 682.633L214.92 621.503H132.505ZM123.759 614.395C124.648 613.483 125.927 612.961 127.243 612.961H220.218C221.533 612.961 222.813 613.483 223.702 614.395C224.591 615.308 224.982 616.547 224.84 617.754L215.56 685.958C215.382 687.36 214.422 688.599 213.036 689.251L175.846 706.302C174.53 706.889 173.002 706.889 171.686 706.302L134.496 689.251C133.109 688.599 132.15 687.393 131.972 685.958L122.692 617.754C122.514 616.547 122.941 615.308 123.83 614.395H123.759Z" fill="#52256A"/>
<path fill-rule="evenodd" clip-rule="evenodd" d="M162.086 678.068V630.012H171.366V685.404C171.366 686.936 170.477 688.338 169.054 689.088C167.632 689.837 165.855 689.87 164.432 689.088L148.148 680.578L152.771 673.178L162.086 678.068Z" fill="#52256A"/>
<path fill-rule="evenodd" clip-rule="evenodd" d="M176.023 630.013C176.023 627.666 178.121 625.742 180.681 625.742H203.934V634.251H185.339V652.378L200.592 649.281C202.049 648.988 203.543 649.346 204.68 650.227C205.782 651.14 206.387 652.444 206.245 653.813L203.934 677.254C203.791 678.721 202.831 680.026 201.374 680.678L182.779 689.187L178.619 681.558L194.903 674.092L196.432 658.834L181.712 661.833C180.325 662.127 178.903 661.833 177.801 660.986C176.699 660.171 176.059 658.964 176.059 657.66V629.948L176.023 630.013Z" fill="#52256A"/>
</g>
<mask id="mask10_75_269" style="mask-type:luminance" maskUnits="userSpaceOnUse" x="795" y="197" width="69" height="89">
<path d="M863.754 197.379H795.24V285.341H863.754V197.379Z" fill="white"/>
</mask>
<g mask="url(#mask10_75_269)">
<path d="M835.204 240.478C835.204 245.27 839.328 249.085 844.519 249.085C849.674 249.085 853.905 245.205 853.905 240.478C853.905 239.337 853.656 238.228 853.194 237.185C852.732 236.142 852.056 235.196 851.168 234.414C850.279 233.599 849.283 232.979 848.11 232.555C846.972 232.132 845.763 231.903 844.519 231.903C839.292 231.903 835.204 235.685 835.204 240.51V240.478ZM825.604 257.692C822.546 257.692 819.453 257.594 816.395 257.725C814.973 257.79 813.515 258.083 812.235 258.605C808.324 260.202 806.227 264.506 807.293 268.32C808.431 272.331 812.342 275.004 816.858 274.841C821.231 274.645 825.177 271.646 825.568 267.701C825.888 264.441 825.64 261.148 825.64 257.692H825.604ZM825.64 206.115C822.155 206.115 818.778 205.919 815.4 206.147C810.316 206.506 806.725 210.549 807.045 215.243C807.329 219.71 811.382 223.198 816.36 223.231C818.457 223.231 820.555 223.231 822.653 223.231H825.64V206.115ZM835.275 223.231C838.51 223.231 841.568 223.231 844.661 223.231C849.781 223.166 853.87 219.449 853.905 214.754C853.905 213.613 853.692 212.537 853.265 211.494C852.803 210.451 852.163 209.505 851.31 208.69C850.457 207.875 849.461 207.256 848.323 206.799C847.185 206.343 846.012 206.115 844.768 206.082C841.781 206.017 838.83 206.082 835.844 206.082C835.666 206.082 835.488 206.115 835.275 206.147V223.231ZM825.675 249.052V231.871C822.475 231.871 819.346 231.871 816.218 231.871C811.311 231.871 807.187 235.587 807.009 240.087C806.831 244.684 810.6 248.759 815.507 249.02C818.849 249.183 822.191 249.02 825.675 249.02V249.052ZM803.88 253.388C795.916 246.835 795.24 234.772 803.88 227.502C801.214 225.22 799.365 222.481 798.298 219.221C795.667 211.07 800.645 201.648 809.356 198.747C811.453 198.029 813.8 197.54 816.004 197.508C825.604 197.377 835.204 197.41 844.839 197.475C853.799 197.54 861.585 203.637 862.972 211.755C863.932 217.493 862.296 222.546 857.816 226.752C857.567 227.013 857.212 227.209 856.892 227.437C860.732 230.86 863.007 234.772 863.185 239.63C863.363 243.901 862.083 247.683 859.238 251.074C854.581 256.616 845.123 260.137 835.204 255.475C835.204 255.899 835.168 256.257 835.133 256.616C835.061 260.463 835.239 264.31 834.919 268.157C834.315 275.265 828.271 281.459 820.733 283.024C812.733 284.687 804.449 281.557 800.36 275.297C795.774 268.288 796.912 259.876 803.205 254.008C803.418 253.812 803.596 253.617 803.809 253.388H803.88Z" fill="#52256A"/>
</g>
<mask id="mask11_75_269" style="mask-type:luminance" maskUnits="userSpaceOnUse" x="615" y="307" width="90" height="82">
<path d="M704.043 307.312H615.939V388.102H704.043V307.312Z" fill="white"/>
</mask>
<g mask="url(#mask11_75_269)">
<path d="M652.775 341.741L650.037 349.761H659.139L656.33 341.741C655.761 340.144 655.299 338.383 654.837 336.753C654.73 336.362 654.624 336.003 654.517 335.645H654.41C654.233 336.297 654.055 336.981 653.877 337.699C653.522 339.068 653.166 340.47 652.739 341.741H652.775Z" fill="#52256A"/>
<path fill-rule="evenodd" clip-rule="evenodd" d="M663.476 363.486L660.277 354.26H649.006L645.948 363.486H639.264L650.641 330.949H658.925L670.445 363.486H663.476ZM672.365 333.394C672.365 331.568 673.823 330.166 675.992 330.166C678.16 330.166 679.583 331.568 679.618 333.394C679.618 335.187 678.196 336.589 675.92 336.589C673.645 336.589 672.329 335.187 672.329 333.394H672.365ZM679.263 339.947V363.454H672.721V339.947H679.263ZM635.388 308.975C651.886 307.279 668.952 307.279 685.485 308.975C694.587 309.92 701.911 316.473 702.977 324.852C704.969 340.338 704.969 355.955 702.977 371.441C701.911 379.82 694.587 386.373 685.485 387.319C668.987 389.014 651.921 389.014 635.388 387.319C626.287 386.373 618.962 379.82 617.896 371.441C615.905 355.955 615.905 340.338 617.896 324.852C618.962 316.473 626.287 309.92 635.388 308.975Z" fill="#52256A"/>
</g>
<mask id="mask12_75_269" style="mask-type:luminance" maskUnits="userSpaceOnUse" x="786" y="-1" width="87" height="71">
<path d="M872.395 -0.78125H786.246V69.4121H872.395V-0.78125Z" fill="white"/>
</mask>
<g mask="url(#mask12_75_269)">
<path d="M819.703 17.6094C817.961 17.6094 816.716 17.7398 816.076 17.9028V28.629C816.858 28.8247 817.854 28.8573 819.134 28.8573C823.863 28.8573 826.707 26.7381 826.707 23.0214C826.707 19.3047 824.04 17.6094 819.703 17.6094Z" fill="#52256A"/>
<path fill-rule="evenodd" clip-rule="evenodd" d="M841.072 45.6139C838.049 45.6139 835.347 44.8966 833.498 43.9837L834.743 39.8106C836.165 40.6257 838.903 41.4407 841.143 41.4407C843.916 41.4407 845.125 40.3975 845.125 38.8977C845.125 37.398 844.094 36.5504 841.036 35.5723C836.165 34.0074 834.103 31.5622 834.174 28.8888C834.174 24.846 837.8 21.6836 843.596 21.6836C846.369 21.6836 848.787 22.3356 850.209 23.0529L848.965 27.1282C847.898 26.574 845.907 25.8241 843.703 25.8241C841.498 25.8241 840.218 26.8022 840.218 28.2367C840.218 29.6712 841.391 30.3885 844.591 31.4318C849.107 32.9315 851.204 35.0506 851.24 38.4413C851.24 42.5818 847.72 45.6465 841.107 45.6465L841.072 45.6139ZM816.041 45.0922H809.784V13.859C812.023 13.4677 815.152 13.2069 819.419 13.2069C824.041 13.2069 827.419 14.0872 829.623 15.7825C831.685 17.3474 833.001 19.8252 833.001 22.7921C833.001 25.7589 831.97 28.3019 830.014 29.9972C827.49 32.312 823.543 33.3879 819.099 33.3879C817.926 33.3879 816.859 33.3553 816.041 33.1923V45.1248V45.0922ZM805.197 -7.95217C821.268 -9.6149 837.872 -9.6149 853.942 -7.95217C862.795 -7.0393 869.906 -0.64919 870.973 7.46885C872.893 22.5312 872.893 37.7567 870.973 52.8191C869.942 60.9697 862.795 67.3598 853.942 68.2401C837.872 69.8702 821.268 69.8702 805.197 68.2401C796.344 67.3272 789.233 60.9371 788.167 52.8191C786.247 37.7567 786.247 22.5312 788.167 7.46885C789.198 -0.681793 796.344 -7.0719 805.197 -7.95217Z" fill="#52256A"/>
</g>
<mask id="mask13_75_269" style="mask-type:luminance" maskUnits="userSpaceOnUse" x="789" y="412" width="81" height="74">
<path d="M869.975 412.129H789.693V485.746H869.975V412.129Z" fill="white"/>
</mask>
<g mask="url(#mask13_75_269)">
<path d="M816.787 443.001L814.334 450.173H822.512L820.023 443.001C819.525 441.566 819.098 440.001 818.707 438.534C818.601 438.208 818.529 437.849 818.423 437.523H818.316C818.138 438.11 817.996 438.73 817.818 439.349C817.498 440.555 817.178 441.827 816.787 442.968V443.001Z" fill="#52256A"/>
<path d="M843.737 444.566C840.146 444.566 838.653 447.566 838.404 449.718H848.502C848.537 447.761 847.613 444.566 843.737 444.566Z" fill="#52256A"/>
<path fill-rule="evenodd" clip-rule="evenodd" d="M853.977 451.185C853.977 452.196 853.87 452.946 853.799 453.435H838.404C838.546 457.249 841.817 458.88 845.479 458.88C848.181 458.88 850.101 458.521 851.843 457.934L852.697 461.618C850.706 462.368 847.968 462.955 844.661 462.955C837.195 462.955 832.822 458.717 832.822 452.261C832.822 446.425 836.697 440.916 844.057 440.916C851.417 440.916 853.977 446.556 853.977 451.185ZM826.351 462.466L823.471 454.185H813.374L810.636 462.466H804.627L814.831 433.287H822.227L832.573 462.466H826.351ZM807.151 413.595C821.942 412.062 837.266 412.062 852.057 413.595C860.199 414.442 866.776 420.311 867.736 427.809C869.514 441.698 869.514 455.685 867.736 469.573C866.776 477.072 860.199 482.973 852.057 483.788C837.266 485.32 821.942 485.32 807.151 483.788C799.01 482.94 792.432 477.072 791.472 469.573C789.694 455.685 789.694 441.665 791.472 427.809C792.432 420.311 799.01 414.41 807.151 413.595Z" fill="#52256A"/>
</g>
<mask id="mask14_75_269" style="mask-type:luminance" maskUnits="userSpaceOnUse" x="606" y="700" width="109" height="99">
<path d="M714.532 700.043H606.838V798.796H714.532V700.043Z" fill="white"/>
</mask>
<g mask="url(#mask14_75_269)">
<path d="M649.822 733.656C647.653 733.656 646.16 733.819 645.307 734.015V747.284C646.267 747.512 647.511 747.578 649.111 747.578C654.942 747.578 658.497 744.969 658.497 740.372C658.497 735.775 655.191 733.689 649.822 733.689V733.656Z" fill="#52256A"/>
<path fill-rule="evenodd" clip-rule="evenodd" d="M677.2 767.661H669.413V748.458C669.413 744.611 669.342 741.872 669.165 739.329H675.955L676.204 744.741H676.453C677.982 740.731 681.573 738.71 684.88 738.71C685.626 738.71 686.089 738.775 686.728 738.873V745.621C686.089 745.491 685.413 745.393 684.453 745.393C680.72 745.393 678.16 747.61 677.484 750.805C677.342 751.457 677.235 752.207 677.235 753.022V767.661H677.2ZM645.308 767.661H637.557V728.994C640.33 728.538 644.205 728.179 649.467 728.179C655.192 728.179 659.352 729.287 662.089 731.374C664.614 733.298 666.285 736.362 666.285 740.046C666.285 743.73 665.005 746.86 662.623 748.947C659.529 751.783 654.623 753.12 649.112 753.12C647.654 753.12 646.339 753.055 645.308 752.892V767.661ZM630.304 702.032C650.179 700.01 670.729 700.01 690.604 702.032C701.555 703.14 710.372 711.063 711.652 721.137C714.034 739.785 714.034 758.597 711.652 777.213C710.372 787.287 701.555 795.177 690.604 796.318C670.729 798.34 650.179 798.34 630.304 796.318C619.353 795.21 610.535 787.287 609.255 777.213C606.873 758.565 606.873 739.753 609.255 721.137C610.535 711.063 619.353 703.173 630.304 702.032Z" fill="#52256A"/>
</g>
<mask id="mask15_75_269" style="mask-type:luminance" maskUnits="userSpaceOnUse" x="620" y="112" width="81" height="77">
<path d="M700.88 112.805H620.598V188.214H700.88V112.805Z" fill="white"/>
</mask>
<g mask="url(#mask15_75_269)">
<path d="M701.556 142.963L692.703 112.773L659.673 120.859L654.802 128.749L644.882 128.684L620.705 150.788L644.882 172.893L654.802 172.827L659.708 180.717L692.738 188.803L701.591 158.613L696.578 150.788L701.591 142.963H701.556ZM680.863 124.087L666.357 147.039H637.345L655.584 130.02L680.828 124.087H680.863ZM666.357 154.537L680.863 177.49L655.584 171.556L637.345 154.537H666.357ZM673.432 150.788L687.939 127.836L694.943 150.788L687.939 173.74L673.432 150.788Z" fill="#52256A"/>
</g>
<mask id="mask16_75_269" style="mask-type:luminance" maskUnits="userSpaceOnUse" x="620" y="507" width="81" height="75">
<path d="M700.88 507.949H620.598V581.566H700.88V507.949Z" fill="white"/>
</mask>
<g mask="url(#mask16_75_269)">
<path d="M659.459 530.478V547.92L646.872 539.183L659.459 530.478ZM659.459 518.643L641.148 535.238L630.126 527.609L625.575 529.011L636.775 539.183L625.575 549.355L630.126 550.756L641.148 543.127L659.459 559.722L670.409 555.451V522.914L659.459 518.643ZM680.4 507.949V570.774L620.598 562.591L680.4 581.044L700.346 573.448V515.546L680.4 507.949Z" fill="#52256A"/>
</g>
<mask id="mask17_75_269" style="mask-type:luminance" maskUnits="userSpaceOnUse" x="778" y="612" width="103" height="95">
<path d="M880.038 612.766H778.246V706.107H880.038V612.766Z" fill="white"/>
</mask>
<g mask="url(#mask17_75_269)">
<path fill-rule="evenodd" clip-rule="evenodd" d="M788.166 621.503L796.485 682.633L829.373 697.695L862.261 682.633L870.581 621.503H788.166ZM779.384 614.395C780.272 613.483 781.552 612.961 782.868 612.961H875.843C877.158 612.961 878.438 613.483 879.327 614.395C880.216 615.308 880.607 616.547 880.465 617.754L871.185 685.958C871.007 687.36 870.047 688.599 868.661 689.251L831.471 706.302C830.155 706.889 828.627 706.889 827.311 706.302L790.121 689.251C788.734 688.599 787.774 687.393 787.597 685.958L778.317 617.754C778.139 616.547 778.566 615.308 779.455 614.395H779.384Z" fill="#52256A"/>
<path fill-rule="evenodd" clip-rule="evenodd" d="M817.746 678.068V630.012H827.026V685.404C827.026 686.936 826.137 688.338 824.715 689.088C823.292 689.837 821.515 689.87 820.093 689.088L803.809 680.578L808.431 673.178L817.746 678.068Z" fill="#52256A"/>
<path fill-rule="evenodd" clip-rule="evenodd" d="M831.684 630.013C831.684 627.666 833.781 625.742 836.341 625.742H859.594V634.251H840.999V652.378L856.252 649.281C857.709 648.988 859.203 649.346 860.34 650.227C861.443 651.14 862.047 652.444 861.905 653.813L859.594 677.254C859.452 678.721 858.492 680.026 857.034 680.678L838.439 689.187L834.279 681.558L850.563 674.092L852.092 658.834L837.372 661.833C835.986 662.127 834.564 661.833 833.461 660.986C832.359 660.171 831.719 658.964 831.719 657.66V629.948L831.684 630.013Z" fill="#52256A"/>
</g>
<mask id="mask18_75_269" style="mask-type:luminance" maskUnits="userSpaceOnUse" x="467" y="197" width="69" height="89">
<path d="M535.906 197.379H467.393V285.341H535.906V197.379Z" fill="white"/>
</mask>
<g mask="url(#mask18_75_269)">
<path d="M507.392 240.478C507.392 245.27 511.516 249.085 516.707 249.085C521.862 249.085 526.093 245.205 526.093 240.478C526.093 239.337 525.844 238.228 525.382 237.185C524.92 236.142 524.244 235.196 523.355 234.414C522.467 233.599 521.471 232.979 520.298 232.555C519.16 232.132 517.951 231.903 516.707 231.903C511.48 231.903 507.392 235.685 507.392 240.51V240.478ZM497.792 257.692C494.734 257.692 491.641 257.594 488.583 257.725C487.161 257.79 485.703 258.083 484.423 258.605C480.512 260.202 478.415 264.506 479.481 268.32C480.619 272.331 484.53 275.004 489.045 274.841C493.419 274.645 497.365 271.646 497.756 267.701C498.076 264.441 497.827 261.148 497.827 257.692H497.792ZM497.792 206.115C494.308 206.115 490.93 205.919 487.552 206.147C482.468 206.506 478.877 210.549 479.197 215.243C479.481 219.71 483.535 223.198 488.512 223.231C490.61 223.231 492.708 223.231 494.805 223.231H497.792V206.115ZM507.427 223.231C510.663 223.231 513.72 223.231 516.813 223.231C521.933 223.166 526.022 219.449 526.058 214.754C526.058 213.613 525.844 212.537 525.418 211.494C524.955 210.451 524.315 209.505 523.462 208.69C522.609 207.875 521.613 207.256 520.476 206.799C519.338 206.343 518.164 206.115 516.92 206.082C513.934 206.017 510.983 206.082 507.996 206.082C507.818 206.082 507.64 206.115 507.427 206.147V223.231ZM497.863 249.052V231.871C494.663 231.871 491.534 231.871 488.405 231.871C483.499 231.871 479.375 235.587 479.197 240.087C479.019 244.684 482.788 248.759 487.694 249.02C491.036 249.183 494.379 249.02 497.863 249.02V249.052ZM476.033 253.388C468.068 246.835 467.393 234.772 476.033 227.502C473.366 225.22 471.517 222.481 470.45 219.221C467.819 211.07 472.797 201.648 481.508 198.747C483.606 198.029 485.952 197.54 488.157 197.508C497.756 197.377 507.356 197.41 516.991 197.475C525.951 197.54 533.737 203.637 535.124 211.755C536.084 217.493 534.448 222.546 529.969 226.752C529.72 227.013 529.364 227.209 529.044 227.437C532.884 230.86 535.159 234.772 535.337 239.63C535.515 243.901 534.235 247.683 531.391 251.074C526.733 256.616 517.276 260.137 507.356 255.475C507.356 255.899 507.32 256.257 507.285 256.616C507.214 260.463 507.392 264.31 507.072 268.157C506.467 275.265 500.423 281.459 492.885 283.024C484.886 284.687 476.601 281.557 472.513 275.297C467.926 268.288 469.064 259.876 475.357 254.008C475.57 253.812 475.748 253.617 475.961 253.388H476.033Z" fill="#52256A"/>
</g>
<mask id="mask19_75_269" style="mask-type:luminance" maskUnits="userSpaceOnUse" x="288" y="307" width="89" height="82">
<path d="M376.196 307.312H288.092V388.102H376.196V307.312Z" fill="white"/>
</mask>
<g mask="url(#mask19_75_269)">
<path d="M324.962 341.741L322.225 349.761H331.327L328.518 341.741C327.949 340.144 327.487 338.383 327.024 336.753C326.918 336.362 326.811 336.003 326.704 335.645H326.598C326.42 336.297 326.242 336.981 326.064 337.699C325.709 339.068 325.353 340.47 324.927 341.741H324.962Z" fill="#52256A"/>
<path fill-rule="evenodd" clip-rule="evenodd" d="M335.664 363.486L332.464 354.26H321.193L318.136 363.486H311.451L322.829 330.949H331.113L342.633 363.486H335.664ZM344.552 333.394C344.552 331.568 346.01 330.166 348.179 330.166C350.348 330.166 351.77 331.568 351.806 333.394C351.806 335.187 350.383 336.589 348.108 336.589C345.832 336.589 344.517 335.187 344.517 333.394H344.552ZM351.45 339.947V363.454H344.908V339.947H351.45ZM307.576 308.975C324.073 307.279 341.139 307.279 357.672 308.975C366.774 309.92 374.098 316.473 375.165 324.852C377.156 340.338 377.156 355.955 375.165 371.441C374.098 379.82 366.774 386.373 357.672 387.319C341.175 389.014 324.109 389.014 307.576 387.319C298.474 386.373 291.15 379.82 290.083 371.441C288.092 355.955 288.092 340.338 290.083 324.852C291.15 316.473 298.474 309.92 307.576 308.975Z" fill="#52256A"/>
</g>
<mask id="mask20_75_269" style="mask-type:luminance" maskUnits="userSpaceOnUse" x="458" y="-1" width="87" height="71">
<path d="M544.582 -0.78125H458.434V69.4121H544.582V-0.78125Z" fill="white"/>
</mask>
<g mask="url(#mask20_75_269)">
<path d="M491.855 17.6094C490.113 17.6094 488.868 17.7398 488.229 17.9028V28.629C489.011 28.8247 490.006 28.8573 491.286 28.8573C496.015 28.8573 498.859 26.7381 498.859 23.0214C498.859 19.3047 496.193 17.6094 491.855 17.6094Z" fill="#52256A"/>
<path fill-rule="evenodd" clip-rule="evenodd" d="M513.223 45.6139C510.201 45.6139 507.499 44.8966 505.65 43.9837L506.895 39.8106C508.317 40.6257 511.055 41.4407 513.295 41.4407C516.068 41.4407 517.277 40.3975 517.277 38.8977C517.277 37.398 516.246 36.5504 513.188 35.5723C508.317 34.0074 506.255 31.5622 506.326 28.8888C506.326 24.846 509.952 21.6836 515.748 21.6836C518.521 21.6836 520.939 22.3356 522.361 23.0529L521.117 27.1282C520.05 26.574 518.059 25.8241 515.854 25.8241C513.65 25.8241 512.37 26.8022 512.37 28.2367C512.37 29.6712 513.543 30.3885 516.743 31.4318C521.259 32.9315 523.356 35.0506 523.392 38.4413C523.392 42.5818 519.872 45.6465 513.259 45.6465L513.223 45.6139ZM488.229 45.0922H481.971V13.859C484.211 13.4677 487.34 13.2069 491.606 13.2069C496.228 13.2069 499.606 14.0872 501.81 15.7825C503.873 17.3474 505.188 19.8252 505.188 22.7921C505.188 25.7589 504.157 28.3019 502.202 29.9972C499.677 32.312 495.731 33.3879 491.286 33.3879C490.113 33.3879 489.046 33.3553 488.229 33.1923V45.1248V45.0922ZM477.385 -7.95217C493.455 -9.6149 510.059 -9.6149 526.13 -7.95217C534.983 -7.0393 542.094 -0.64919 543.16 7.46885C545.08 22.5312 545.08 37.7567 543.16 52.8191C542.129 60.9697 534.983 67.3598 526.13 68.2401C510.059 69.8702 493.455 69.8702 477.385 68.2401C468.532 67.3272 461.421 60.9371 460.354 52.8191C458.434 37.7567 458.434 22.5312 460.354 7.46885C461.385 -0.681793 468.532 -7.0719 477.385 -7.95217Z" fill="#52256A"/>
</g>
<mask id="mask21_75_269" style="mask-type:luminance" maskUnits="userSpaceOnUse" x="461" y="412" width="82" height="74">
<path d="M542.128 412.129H461.846V485.746H542.128V412.129Z" fill="white"/>
</mask>
<g mask="url(#mask21_75_269)">
<path d="M488.94 443.001L486.486 450.173H494.664L492.175 443.001C491.677 441.566 491.251 440.001 490.86 438.534C490.753 438.208 490.682 437.849 490.575 437.523H490.468C490.291 438.11 490.148 438.73 489.971 439.349C489.651 440.555 489.331 441.827 488.94 442.968V443.001Z" fill="#52256A"/>
<path d="M515.925 444.566C512.334 444.566 510.841 447.566 510.592 449.718H520.689C520.725 447.761 519.8 444.566 515.925 444.566Z" fill="#52256A"/>
<path fill-rule="evenodd" clip-rule="evenodd" d="M526.165 451.185C526.165 452.196 526.058 452.946 525.987 453.435H510.592C510.734 457.249 514.005 458.88 517.667 458.88C520.369 458.88 522.289 458.521 524.031 457.934L524.885 461.618C522.894 462.368 520.156 462.955 516.849 462.955C509.383 462.955 505.01 458.717 505.01 452.261C505.01 446.425 508.885 440.916 516.245 440.916C523.605 440.916 526.165 446.556 526.165 451.185ZM498.539 462.466L495.659 454.185H485.561L482.824 462.466H476.815L487.019 433.287H494.414L504.761 462.466H498.539ZM479.304 413.595C494.094 412.062 509.418 412.062 524.209 413.595C532.351 414.442 538.929 420.311 539.888 427.809C541.666 441.698 541.666 455.685 539.888 469.573C538.929 477.072 532.351 482.973 524.209 483.788C509.418 485.32 494.094 485.32 479.304 483.788C471.162 482.94 464.584 477.072 463.624 469.573C461.847 455.685 461.847 441.665 463.624 427.809C464.584 420.311 471.162 414.41 479.304 413.595Z" fill="#52256A"/>
</g>
<mask id="mask22_75_269" style="mask-type:luminance" maskUnits="userSpaceOnUse" x="279" y="700" width="108" height="99">
<path d="M386.72 700.043H279.025V798.796H386.72V700.043Z" fill="white"/>
</mask>
<g mask="url(#mask22_75_269)">
<path d="M321.974 733.656C319.806 733.656 318.312 733.819 317.459 734.015V747.284C318.419 747.512 319.663 747.578 321.263 747.578C327.094 747.578 330.65 744.969 330.65 740.372C330.65 735.775 327.343 733.689 321.974 733.689V733.656Z" fill="#52256A"/>
<path fill-rule="evenodd" clip-rule="evenodd" d="M349.352 767.661H341.566V748.458C341.566 744.611 341.495 741.872 341.317 739.329H348.108L348.357 744.741H348.606C350.134 740.731 353.725 738.71 357.032 738.71C357.779 738.71 358.241 738.775 358.881 738.873V745.621C358.241 745.491 357.565 745.393 356.605 745.393C352.872 745.393 350.312 747.61 349.637 750.805C349.494 751.457 349.388 752.207 349.388 753.022V767.661H349.352ZM317.495 767.661H309.745V728.994C312.518 728.538 316.393 728.179 321.655 728.179C327.38 728.179 331.539 729.287 334.277 731.374C336.801 733.298 338.473 736.362 338.473 740.046C338.473 743.73 337.193 746.86 334.81 748.947C331.717 751.783 326.811 753.12 321.3 753.12C319.842 753.12 318.527 753.055 317.495 752.892V767.661ZM302.456 702.032C322.331 700.01 342.881 700.01 362.756 702.032C373.707 703.14 382.525 711.063 383.804 721.137C386.187 739.785 386.187 758.597 383.804 777.213C382.525 787.287 373.707 795.177 362.756 796.318C342.881 798.34 322.331 798.34 302.456 796.318C291.505 795.21 282.688 787.287 281.408 777.213C279.026 758.565 279.026 739.753 281.408 721.137C282.688 711.063 291.505 703.173 302.456 702.032Z" fill="#52256A"/>
</g>
<mask id="mask23_75_269" style="mask-type:luminance" maskUnits="userSpaceOnUse" x="292" y="112" width="82" height="77">
<path d="M373.067 112.805H292.785V188.214H373.067V112.805Z" fill="white"/>
</mask>
<g mask="url(#mask23_75_269)">
<path d="M373.743 142.963L364.89 112.773L331.86 120.859L326.989 128.749L317.07 128.684L292.893 150.788L317.07 172.893L326.989 172.827L331.896 180.717L364.926 188.803L373.779 158.613L368.766 150.788L373.779 142.963H373.743ZM353.051 124.087L338.544 147.039H309.532L327.771 130.02L353.015 124.087H353.051ZM338.544 154.537L353.051 177.49L327.771 171.556L309.532 154.537H338.544ZM345.62 150.788L360.126 127.836L367.13 150.788L360.126 173.74L345.62 150.788Z" fill="#52256A"/>
</g>
<mask id="mask24_75_269" style="mask-type:luminance" maskUnits="userSpaceOnUse" x="292" y="507" width="82" height="75">
<path d="M373.067 507.949H292.785V581.566H373.067V507.949Z" fill="white"/>
</mask>
<g mask="url(#mask24_75_269)">
<path d="M331.646 530.478V547.92L319.06 539.183L331.646 530.478ZM331.646 518.643L313.336 535.238L302.314 527.609L297.763 529.011L308.963 539.183L297.763 549.355L302.314 550.756L313.336 543.127L331.646 559.722L342.597 555.451V522.914L331.646 518.643ZM352.553 507.949V570.774L292.75 562.591L352.553 581.044L372.499 573.448V515.546L352.553 507.949Z" fill="#52256A"/>
</g>
<mask id="mask25_75_269" style="mask-type:luminance" maskUnits="userSpaceOnUse" x="450" y="612" width="103" height="95">
<path d="M552.191 612.766H450.398V706.107H552.191V612.766Z" fill="white"/>
</mask>
<g mask="url(#mask25_75_269)">
<path fill-rule="evenodd" clip-rule="evenodd" d="M460.318 621.503L468.637 682.633L501.525 697.695L534.413 682.633L542.733 621.503H460.318ZM451.571 614.395C452.46 613.483 453.74 612.961 455.055 612.961H548.03C549.346 612.961 550.626 613.483 551.515 614.395C552.404 615.308 552.795 616.547 552.652 617.754L543.373 685.958C543.195 687.36 542.235 688.599 540.848 689.251L503.658 706.302C502.343 706.889 500.814 706.889 499.499 706.302L462.309 689.251C460.922 688.599 459.962 687.393 459.784 685.958L450.505 617.754C450.327 616.547 450.753 615.308 451.642 614.395H451.571Z" fill="#52256A"/>
<path fill-rule="evenodd" clip-rule="evenodd" d="M489.933 678.068V630.012H499.213V685.404C499.213 686.936 498.324 688.338 496.902 689.088C495.48 689.837 493.702 689.87 492.28 689.088L475.996 680.578L480.618 673.178L489.933 678.068Z" fill="#52256A"/>
<path fill-rule="evenodd" clip-rule="evenodd" d="M503.871 630.013C503.871 627.666 505.969 625.742 508.529 625.742H531.781V634.251H513.186V652.378L528.439 649.281C529.897 648.988 531.39 649.346 532.528 650.227C533.63 651.14 534.235 652.444 534.092 653.813L531.781 677.254C531.639 678.721 530.679 680.026 529.221 680.678L510.626 689.187L506.467 681.558L522.75 674.092L524.279 658.834L509.56 661.833C508.173 662.127 506.751 661.833 505.649 660.986C504.547 660.171 503.907 658.964 503.907 657.66V629.948L503.871 630.013Z" fill="#52256A"/>
</g>
<mask id="mask26_75_269" style="mask-type:luminance" maskUnits="userSpaceOnUse" x="1450" y="197" width="70" height="89">
<path d="M1519.41 197.379H1450.9V285.341H1519.41V197.379Z" fill="white"/>
</mask>
<g mask="url(#mask26_75_269)">
<path d="M1490.86 240.478C1490.86 245.27 1494.99 249.085 1500.18 249.085C1505.33 249.085 1509.57 245.205 1509.57 240.478C1509.57 239.337 1509.32 238.228 1508.85 237.185C1508.39 236.142 1507.72 235.196 1506.83 234.414C1505.94 233.599 1504.94 232.979 1503.77 232.555C1502.63 232.132 1501.42 231.903 1500.18 231.903C1494.95 231.903 1490.86 235.685 1490.86 240.51V240.478ZM1481.26 257.692C1478.21 257.692 1475.11 257.594 1472.06 257.725C1470.63 257.79 1469.18 258.083 1467.9 258.605C1463.98 260.202 1461.89 264.506 1462.95 268.32C1464.09 272.331 1468 275.004 1472.52 274.841C1476.89 274.645 1480.84 271.646 1481.23 267.701C1481.55 264.441 1481.3 261.148 1481.3 257.692H1481.26ZM1481.3 206.115C1477.82 206.115 1474.44 205.919 1471.06 206.147C1465.98 206.506 1462.38 210.549 1462.7 215.243C1462.99 219.71 1467.04 223.198 1472.02 223.231C1474.12 223.231 1476.22 223.231 1478.31 223.231H1481.3V206.115ZM1490.93 223.231C1494.17 223.231 1497.23 223.231 1500.32 223.231C1505.44 223.166 1509.53 219.449 1509.57 214.754C1509.57 213.613 1509.35 212.537 1508.93 211.494C1508.46 210.451 1507.82 209.505 1506.97 208.69C1506.12 207.875 1505.12 207.256 1503.98 206.799C1502.85 206.343 1501.67 206.115 1500.43 206.082C1497.44 206.017 1494.49 206.082 1491.5 206.082C1491.33 206.082 1491.15 206.115 1490.93 206.147V223.231ZM1481.34 249.052V231.871C1478.14 231.871 1475.01 231.871 1471.88 231.871C1466.97 231.871 1462.85 235.587 1462.67 240.087C1462.49 244.684 1466.26 248.759 1471.17 249.02C1474.51 249.183 1477.85 249.02 1481.34 249.02V249.052ZM1459.54 253.388C1451.58 246.835 1450.9 234.772 1459.54 227.502C1456.87 225.22 1455.02 222.481 1453.96 219.221C1451.33 211.07 1456.3 201.648 1465.02 198.747C1467.11 198.029 1469.46 197.54 1471.66 197.508C1481.26 197.377 1490.86 197.41 1500.5 197.475C1509.46 197.54 1517.25 203.637 1518.63 211.755C1519.59 217.493 1517.96 222.546 1513.48 226.752C1513.23 227.013 1512.87 227.209 1512.55 227.437C1516.39 230.86 1518.67 234.772 1518.85 239.63C1519.02 243.901 1517.74 247.683 1514.9 251.074C1510.24 256.616 1500.78 260.137 1490.86 255.475C1490.86 255.899 1490.83 256.257 1490.79 256.616C1490.72 260.463 1490.9 264.31 1490.58 268.157C1489.97 275.265 1483.93 281.459 1476.39 283.024C1468.39 284.687 1460.11 281.557 1456.02 275.297C1451.43 268.288 1452.57 259.876 1458.86 254.008C1459.08 253.812 1459.26 253.617 1459.47 253.388H1459.54Z" fill="#52256A"/>
</g>
<mask id="mask27_75_269" style="mask-type:luminance" maskUnits="userSpaceOnUse" x="1271" y="307" width="89" height="82">
<path d="M1359.7 307.312H1271.6V388.102H1359.7V307.312Z" fill="white"/>
</mask>
<g mask="url(#mask27_75_269)">
<path d="M1308.43 341.741L1305.7 349.761H1314.8L1311.99 341.741C1311.42 340.144 1310.96 338.383 1310.5 336.753C1310.39 336.362 1310.28 336.003 1310.18 335.645H1310.07C1309.89 336.297 1309.71 336.981 1309.54 337.699C1309.18 339.068 1308.82 340.47 1308.4 341.741H1308.43Z" fill="#52256A"/>
<path fill-rule="evenodd" clip-rule="evenodd" d="M1319.13 363.486L1315.93 354.26H1304.66L1301.61 363.486H1294.92L1306.3 330.949H1314.58L1326.1 363.486H1319.13ZM1328.02 333.394C1328.02 331.568 1329.48 330.166 1331.65 330.166C1333.82 330.166 1335.24 331.568 1335.28 333.394C1335.28 335.187 1333.85 336.589 1331.58 336.589C1329.3 336.589 1327.99 335.187 1327.99 333.394H1328.02ZM1334.92 339.947V363.454H1328.38V339.947H1334.92ZM1291.05 308.975C1307.54 307.279 1324.61 307.279 1341.14 308.975C1350.24 309.92 1357.57 316.473 1358.64 324.852C1360.63 340.338 1360.63 355.955 1358.64 371.441C1357.57 379.82 1350.24 386.373 1341.14 387.319C1324.65 389.014 1307.58 389.014 1291.05 387.319C1281.94 386.373 1274.62 379.82 1273.55 371.441C1271.56 355.955 1271.56 340.338 1273.55 324.852C1274.62 316.473 1281.94 309.92 1291.05 308.975Z" fill="#52256A"/>
</g>
<mask id="mask28_75_269" style="mask-type:luminance" maskUnits="userSpaceOnUse" x="1441" y="-1" width="88" height="71">
<path d="M1528.05 -0.78125H1441.9V69.4121H1528.05V-0.78125Z" fill="white"/>
</mask>
<g mask="url(#mask28_75_269)">
<path d="M1475.33 17.6094C1473.58 17.6094 1472.34 17.7398 1471.7 17.9028V28.629C1472.48 28.8247 1473.48 28.8573 1474.76 28.8573C1479.49 28.8573 1482.33 26.7381 1482.33 23.0214C1482.33 19.3047 1479.66 17.6094 1475.33 17.6094Z" fill="#52256A"/>
<path fill-rule="evenodd" clip-rule="evenodd" d="M1496.73 45.6139C1493.71 45.6139 1491.01 44.8966 1489.16 43.9837L1490.4 39.8106C1491.82 40.6257 1494.56 41.4407 1496.8 41.4407C1499.57 41.4407 1500.78 40.3975 1500.78 38.8977C1500.78 37.398 1499.75 36.5504 1496.69 35.5723C1491.82 34.0074 1489.76 31.5622 1489.83 28.8888C1489.83 24.846 1493.46 21.6836 1499.25 21.6836C1502.03 21.6836 1504.44 22.3356 1505.87 23.0529L1504.62 27.1282C1503.56 26.574 1501.56 25.8241 1499.36 25.8241C1497.16 25.8241 1495.88 26.8022 1495.88 28.2367C1495.88 29.6712 1497.05 30.3885 1500.25 31.4318C1504.76 32.9315 1506.86 35.0506 1506.9 38.4413C1506.9 42.5818 1503.38 45.6465 1496.77 45.6465L1496.73 45.6139ZM1471.7 45.0922H1465.44V13.859C1467.68 13.4677 1470.81 13.2069 1475.08 13.2069C1479.7 13.2069 1483.08 14.0872 1485.28 15.7825C1487.34 17.3474 1488.66 19.8252 1488.66 22.7921C1488.66 25.7589 1487.63 28.3019 1485.67 29.9972C1483.15 32.312 1479.2 33.3879 1474.76 33.3879C1473.58 33.3879 1472.52 33.3553 1471.7 33.1923V45.1248V45.0922ZM1460.86 -7.95217C1476.93 -9.6149 1493.53 -9.6149 1509.6 -7.95217C1518.45 -7.0393 1525.56 -0.64919 1526.63 7.46885C1528.55 22.5312 1528.55 37.7567 1526.63 52.8191C1525.6 60.9697 1518.45 67.3598 1509.6 68.2401C1493.53 69.8702 1476.93 69.8702 1460.86 68.2401C1452 67.3272 1444.89 60.9371 1443.82 52.8191C1441.9 37.7567 1441.9 22.5312 1443.82 7.46885C1444.86 -0.681793 1452 -7.0719 1460.86 -7.95217Z" fill="#52256A"/>
</g>
<mask id="mask29_75_269" style="mask-type:luminance" maskUnits="userSpaceOnUse" x="1445" y="412" width="81" height="74">
<path d="M1525.64 412.129H1445.35V485.746H1525.64V412.129Z" fill="white"/>
</mask>
<g mask="url(#mask29_75_269)">
<path d="M1472.45 443.001L1469.99 450.173H1478.17L1475.68 443.001C1475.19 441.566 1474.76 440.001 1474.37 438.534C1474.26 438.208 1474.19 437.849 1474.08 437.523H1473.98C1473.8 438.11 1473.66 438.73 1473.48 439.349C1473.16 440.555 1472.84 441.827 1472.45 442.968V443.001Z" fill="#52256A"/>
<path d="M1499.4 444.566C1495.81 444.566 1494.31 447.566 1494.06 449.718H1504.16C1504.2 447.761 1503.27 444.566 1499.4 444.566Z" fill="#52256A"/>
<path fill-rule="evenodd" clip-rule="evenodd" d="M1509.64 451.185C1509.64 452.196 1509.53 452.946 1509.46 453.435H1494.06C1494.21 457.249 1497.48 458.88 1501.14 458.88C1503.84 458.88 1505.76 458.521 1507.5 457.934L1508.36 461.618C1506.37 462.368 1503.63 462.955 1500.32 462.955C1492.85 462.955 1488.48 458.717 1488.48 452.261C1488.48 446.425 1492.36 440.916 1499.72 440.916C1507.08 440.916 1509.64 446.556 1509.64 451.185ZM1482.01 462.466L1479.13 454.185H1469.03L1466.3 462.466H1460.29L1470.49 433.287H1477.89L1488.23 462.466H1482.01ZM1462.81 413.595C1477.6 412.062 1492.93 412.062 1507.72 413.595C1515.86 414.442 1522.44 420.311 1523.4 427.809C1525.17 441.698 1525.17 455.685 1523.4 469.573C1522.44 477.072 1515.86 482.973 1507.72 483.788C1492.93 485.32 1477.6 485.32 1462.81 483.788C1454.67 482.94 1448.09 477.072 1447.13 469.573C1445.35 455.685 1445.35 441.665 1447.13 427.809C1448.09 420.311 1454.67 414.41 1462.81 413.595Z" fill="#52256A"/>
</g>
<mask id="mask30_75_269" style="mask-type:luminance" maskUnits="userSpaceOnUse" x="1262" y="700" width="109" height="99">
<path d="M1370.19 700.043H1262.5V798.796H1370.19V700.043Z" fill="white"/>
</mask>
<g mask="url(#mask30_75_269)">
<path d="M1305.45 733.656C1303.28 733.656 1301.78 733.819 1300.93 734.015V747.284C1301.89 747.512 1303.13 747.578 1304.73 747.578C1310.56 747.578 1314.12 744.969 1314.12 740.372C1314.12 735.775 1310.81 733.689 1305.45 733.689V733.656Z" fill="#52256A"/>
<path fill-rule="evenodd" clip-rule="evenodd" d="M1332.86 767.661H1325.07V748.458C1325.07 744.611 1325 741.872 1324.82 739.329H1331.61L1331.86 744.741H1332.11C1333.64 740.731 1337.23 738.71 1340.54 738.71C1341.28 738.71 1341.75 738.775 1342.39 738.873V745.621C1341.75 745.491 1341.07 745.393 1340.11 745.393C1336.38 745.393 1333.82 747.61 1333.14 750.805C1333 751.457 1332.89 752.207 1332.89 753.022V767.661H1332.86ZM1300.97 767.661H1293.22V728.994C1295.99 728.538 1299.86 728.179 1305.13 728.179C1310.85 728.179 1315.01 729.287 1317.75 731.374C1320.27 733.298 1321.94 736.362 1321.94 740.046C1321.94 743.73 1320.66 746.86 1318.28 748.947C1315.19 751.783 1310.28 753.12 1304.77 753.12C1303.31 753.12 1302 753.055 1300.97 752.892V767.661ZM1285.93 702.032C1305.8 700.01 1326.35 700.01 1346.23 702.032C1357.18 703.14 1366 711.063 1367.28 721.137C1369.66 739.785 1369.66 758.597 1367.28 777.213C1366 787.287 1357.18 795.177 1346.23 796.318C1326.35 798.34 1305.8 798.34 1285.93 796.318C1274.98 795.21 1266.16 787.287 1264.88 777.213C1262.5 758.565 1262.5 739.753 1264.88 721.137C1266.16 711.063 1274.98 703.173 1285.93 702.032Z" fill="#52256A"/>
</g>
<mask id="mask31_75_269" style="mask-type:luminance" maskUnits="userSpaceOnUse" x="1276" y="112" width="81" height="77">
<path d="M1356.54 112.805H1276.26V188.214H1356.54V112.805Z" fill="white"/>
</mask>
<g mask="url(#mask31_75_269)">
<path d="M1357.21 142.963L1348.36 112.773L1315.33 120.859L1310.46 128.749L1300.54 128.684L1276.36 150.788L1300.54 172.893L1310.46 172.827L1315.37 180.717L1348.4 188.803L1357.25 158.613L1352.24 150.788L1357.25 142.963H1357.21ZM1336.52 124.087L1322.02 147.039H1293L1311.24 130.02L1336.49 124.087H1336.52ZM1322.02 154.537L1336.52 177.49L1311.24 171.556L1293 154.537H1322.02ZM1329.09 150.788L1343.6 127.836L1350.6 150.788L1343.6 173.74L1329.09 150.788Z" fill="#52256A"/>
</g>
<mask id="mask32_75_269" style="mask-type:luminance" maskUnits="userSpaceOnUse" x="1276" y="507" width="81" height="75">
<path d="M1356.54 507.949H1276.26V581.566H1356.54V507.949Z" fill="white"/>
</mask>
<g mask="url(#mask32_75_269)">
<path d="M1315.12 530.478V547.92L1302.53 539.183L1315.12 530.478ZM1315.12 518.643L1296.81 535.238L1285.78 527.609L1281.23 529.011L1292.43 539.183L1281.23 549.355L1285.78 550.756L1296.81 543.127L1315.12 559.722L1326.07 555.451V522.914L1315.12 518.643ZM1336.06 507.949V570.774L1276.26 562.591L1336.06 581.044L1356 573.448V515.546L1336.06 507.949Z" fill="#52256A"/>
</g>
<mask id="mask33_75_269" style="mask-type:luminance" maskUnits="userSpaceOnUse" x="1433" y="612" width="103" height="95">
<path d="M1535.7 612.766H1433.9V706.107H1535.7V612.766Z" fill="white"/>
</mask>
<g mask="url(#mask33_75_269)">
<path fill-rule="evenodd" clip-rule="evenodd" d="M1443.79 621.503L1452.11 682.633L1485 697.695L1517.88 682.633L1526.2 621.503H1443.79ZM1435.04 614.395C1435.93 613.483 1437.21 612.961 1438.53 612.961H1531.5C1532.82 612.961 1534.1 613.483 1534.99 614.395C1535.87 615.308 1536.27 616.547 1536.12 617.754L1526.84 685.958C1526.67 687.36 1525.71 688.599 1524.32 689.251L1487.13 706.302C1485.81 706.889 1484.28 706.889 1482.97 706.302L1445.78 689.251C1444.39 688.599 1443.43 687.393 1443.25 685.958L1433.98 617.754C1433.8 616.547 1434.22 615.308 1435.11 614.395H1435.04Z" fill="#52256A"/>
<path fill-rule="evenodd" clip-rule="evenodd" d="M1473.41 678.068V630.012H1482.69V685.404C1482.69 686.936 1481.8 688.338 1480.37 689.088C1478.95 689.837 1477.17 689.87 1475.75 689.088L1459.47 680.578L1464.09 673.178L1473.41 678.068Z" fill="#52256A"/>
<path fill-rule="evenodd" clip-rule="evenodd" d="M1487.34 630.013C1487.34 627.666 1489.44 625.742 1492 625.742H1515.25V634.251H1496.66V652.378L1511.91 649.281C1513.37 648.988 1514.86 649.346 1516 650.227C1517.1 651.14 1517.71 652.444 1517.56 653.813L1515.25 677.254C1515.11 678.721 1514.15 680.026 1512.69 680.678L1494.1 689.187L1489.94 681.558L1506.22 674.092L1507.75 658.834L1493.03 661.833C1491.64 662.127 1490.22 661.833 1489.12 660.986C1488.02 660.171 1487.38 658.964 1487.38 657.66V629.948L1487.34 630.013Z" fill="#52256A"/>
</g>
<mask id="mask34_75_269" style="mask-type:luminance" maskUnits="userSpaceOnUse" x="1123" y="197" width="69" height="89">
<path d="M1191.57 197.379H1123.05V285.341H1191.57V197.379Z" fill="white"/>
</mask>
<g mask="url(#mask34_75_269)">
<path d="M1163.05 240.478C1163.05 245.27 1167.18 249.085 1172.37 249.085C1177.52 249.085 1181.75 245.205 1181.75 240.478C1181.75 239.337 1181.5 238.228 1181.04 237.185C1180.58 236.142 1179.9 235.196 1179.02 234.414C1178.13 233.599 1177.13 232.979 1175.96 232.555C1174.82 232.132 1173.61 231.903 1172.37 231.903C1167.14 231.903 1163.05 235.685 1163.05 240.51V240.478ZM1153.45 257.692C1150.39 257.692 1147.3 257.594 1144.24 257.725C1142.82 257.79 1141.36 258.083 1140.08 258.605C1136.17 260.202 1134.07 264.506 1135.14 268.32C1136.28 272.331 1140.19 275.004 1144.71 274.841C1149.08 274.645 1153.03 271.646 1153.42 267.701C1153.74 264.441 1153.49 261.148 1153.49 257.692H1153.45ZM1153.45 206.115C1149.97 206.115 1146.59 205.919 1143.21 206.147C1138.13 206.506 1134.54 210.549 1134.86 215.243C1135.14 219.71 1139.19 223.198 1144.17 223.231C1146.27 223.231 1148.37 223.231 1150.47 223.231H1153.45V206.115ZM1163.09 223.231C1166.32 223.231 1169.38 223.231 1172.47 223.231C1177.59 223.166 1181.68 219.449 1181.72 214.754C1181.72 213.613 1181.5 212.537 1181.08 211.494C1180.62 210.451 1179.98 209.505 1179.12 208.69C1178.27 207.875 1177.27 207.256 1176.14 206.799C1175 206.343 1173.82 206.115 1172.58 206.082C1169.59 206.017 1166.64 206.082 1163.66 206.082C1163.48 206.082 1163.3 206.115 1163.09 206.147V223.231ZM1153.52 249.052V231.871C1150.32 231.871 1147.19 231.871 1144.07 231.871C1139.16 231.871 1135.03 235.587 1134.86 240.087C1134.68 244.684 1138.45 248.759 1143.35 249.02C1146.7 249.183 1150.04 249.02 1153.52 249.02V249.052ZM1131.69 253.388C1123.73 246.835 1123.05 234.772 1131.69 227.502C1129.03 225.22 1127.18 222.481 1126.11 219.221C1123.48 211.07 1128.46 201.648 1137.17 198.747C1139.27 198.029 1141.61 197.54 1143.82 197.508C1153.42 197.377 1163.02 197.41 1172.65 197.475C1181.61 197.54 1189.4 203.637 1190.78 211.755C1191.74 217.493 1190.11 222.546 1185.63 226.752C1185.38 227.013 1185.02 227.209 1184.7 227.437C1188.54 230.86 1190.82 234.772 1191 239.63C1191.18 243.901 1189.9 247.683 1187.05 251.074C1182.39 256.616 1172.94 260.137 1163.02 255.475C1163.02 255.899 1162.98 256.257 1162.95 256.616C1162.87 260.463 1163.05 264.31 1162.73 268.157C1162.13 275.265 1156.08 281.459 1148.55 283.024C1140.55 284.687 1132.26 281.557 1128.17 275.297C1123.59 268.288 1124.72 259.876 1131.02 254.008C1131.23 253.812 1131.41 253.617 1131.62 253.388H1131.69Z" fill="#52256A"/>
</g>
<mask id="mask35_75_269" style="mask-type:luminance" maskUnits="userSpaceOnUse" x="943" y="307" width="89" height="82">
<path d="M1031.86 307.312H943.752V388.102H1031.86V307.312Z" fill="white"/>
</mask>
<g mask="url(#mask35_75_269)">
<path d="M980.623 341.741L977.885 349.761H986.987L984.178 341.741C983.609 340.144 983.147 338.383 982.685 336.753C982.578 336.362 982.471 336.003 982.365 335.645H982.258C982.08 336.297 981.902 336.981 981.725 337.699C981.369 339.068 981.014 340.47 980.587 341.741H980.623Z" fill="#52256A"/>
<path fill-rule="evenodd" clip-rule="evenodd" d="M991.324 363.486L988.124 354.26H976.853L973.796 363.486H967.111L978.489 330.949H986.773L998.293 363.486H991.324ZM1000.21 333.394C1000.21 331.568 1001.67 330.166 1003.84 330.166C1006.01 330.166 1007.43 331.568 1007.47 333.394C1007.47 335.187 1006.04 336.589 1003.77 336.589C1001.49 336.589 1000.18 335.187 1000.18 333.394H1000.21ZM1007.11 339.947V363.454H1000.57V339.947H1007.11ZM963.236 308.975C979.733 307.279 996.799 307.279 1013.33 308.975C1022.43 309.92 1029.76 316.473 1030.83 324.852C1032.82 340.338 1032.82 355.955 1030.83 371.441C1029.76 379.82 1022.43 386.373 1013.33 387.319C996.835 389.014 979.769 389.014 963.236 387.319C954.134 386.373 946.81 379.82 945.743 371.441C943.752 355.955 943.752 340.338 945.743 324.852C946.81 316.473 954.134 309.92 963.236 308.975Z" fill="#52256A"/>
</g>
<mask id="mask36_75_269" style="mask-type:luminance" maskUnits="userSpaceOnUse" x="1114" y="-1" width="87" height="71">
<path d="M1200.24 -0.78125H1114.09V69.4121H1200.24V-0.78125Z" fill="white"/>
</mask>
<g mask="url(#mask36_75_269)">
<path d="M1147.51 17.6094C1145.77 17.6094 1144.53 17.7398 1143.89 17.9028V28.629C1144.67 28.8247 1145.66 28.8573 1146.94 28.8573C1151.67 28.8573 1154.52 26.7381 1154.52 23.0214C1154.52 19.3047 1151.85 17.6094 1147.51 17.6094Z" fill="#52256A"/>
<path fill-rule="evenodd" clip-rule="evenodd" d="M1168.88 45.6139C1165.86 45.6139 1163.16 44.8966 1161.31 43.9837L1162.55 39.8106C1163.98 40.6257 1166.71 41.4407 1168.95 41.4407C1171.73 41.4407 1172.93 40.3975 1172.93 38.8977C1172.93 37.398 1171.9 36.5504 1168.85 35.5723C1163.98 34.0074 1161.91 31.5622 1161.98 28.8888C1161.98 24.846 1165.61 21.6836 1171.41 21.6836C1174.18 21.6836 1176.6 22.3356 1178.02 23.0529L1176.77 27.1282C1175.71 26.574 1173.72 25.8241 1171.51 25.8241C1169.31 25.8241 1168.03 26.8022 1168.03 28.2367C1168.03 29.6712 1169.2 30.3885 1172.4 31.4318C1176.92 32.9315 1179.01 35.0506 1179.05 38.4413C1179.05 42.5818 1175.53 45.6465 1168.92 45.6465L1168.88 45.6139ZM1143.89 45.0922H1137.63V13.859C1139.87 13.4677 1143 13.2069 1147.26 13.2069C1151.89 13.2069 1155.26 14.0872 1157.47 15.7825C1159.53 17.3474 1160.85 19.8252 1160.85 22.7921C1160.85 25.7589 1159.82 28.3019 1157.86 29.9972C1155.34 32.312 1151.39 33.3879 1146.94 33.3879C1145.77 33.3879 1144.7 33.3553 1143.89 33.1923V45.1248V45.0922ZM1133.04 -7.95217C1149.11 -9.6149 1165.72 -9.6149 1181.79 -7.95217C1190.64 -7.0393 1197.75 -0.64919 1198.82 7.46885C1200.74 22.5312 1200.74 37.7567 1198.82 52.8191C1197.79 60.9697 1190.64 67.3598 1181.79 68.2401C1165.72 69.8702 1149.11 69.8702 1133.04 68.2401C1124.19 67.3272 1117.08 60.9371 1116.01 52.8191C1114.09 37.7567 1114.09 22.5312 1116.01 7.46885C1117.04 -0.681793 1124.19 -7.0719 1133.04 -7.95217Z" fill="#52256A"/>
</g>
<mask id="mask37_75_269" style="mask-type:luminance" maskUnits="userSpaceOnUse" x="1117" y="412" width="81" height="74">
<path d="M1197.79 412.129H1117.51V485.746H1197.79V412.129Z" fill="white"/>
</mask>
<g mask="url(#mask37_75_269)">
<path d="M1144.6 443.001L1142.15 450.173H1150.32L1147.84 443.001C1147.34 441.566 1146.91 440.001 1146.52 438.534C1146.41 438.208 1146.34 437.849 1146.24 437.523H1146.13C1145.95 438.11 1145.81 438.73 1145.63 439.349C1145.31 440.555 1144.99 441.827 1144.6 442.968V443.001Z" fill="#52256A"/>
<path d="M1171.59 444.566C1167.99 444.566 1166.5 447.566 1166.25 449.718H1176.35C1176.38 447.761 1175.46 444.566 1171.59 444.566Z" fill="#52256A"/>
<path fill-rule="evenodd" clip-rule="evenodd" d="M1181.82 451.185C1181.82 452.196 1181.72 452.946 1181.65 453.435H1166.25C1166.39 457.249 1169.67 458.88 1173.33 458.88C1176.03 458.88 1177.95 458.521 1179.69 457.934L1180.54 461.618C1178.55 462.368 1175.82 462.955 1172.51 462.955C1165.04 462.955 1160.67 458.717 1160.67 452.261C1160.67 446.425 1164.55 440.916 1171.9 440.916C1179.26 440.916 1181.82 446.556 1181.82 451.185ZM1154.2 462.466L1151.32 454.185H1141.22L1138.48 462.466H1132.48L1142.68 433.287H1150.11L1160.46 462.466H1154.23H1154.2ZM1134.96 413.595C1149.75 412.062 1165.08 412.062 1179.87 413.595C1188.01 414.442 1194.59 420.311 1195.55 427.809C1197.33 441.698 1197.33 455.685 1195.55 469.573C1194.59 477.072 1188.01 482.973 1179.87 483.788C1165.08 485.32 1149.75 485.32 1134.96 483.788C1126.82 482.94 1120.24 477.072 1119.28 469.573C1117.51 455.685 1117.51 441.665 1119.28 427.809C1120.24 420.311 1126.82 414.41 1134.96 413.595Z" fill="#52256A"/>
</g>
<mask id="mask38_75_269" style="mask-type:luminance" maskUnits="userSpaceOnUse" x="934" y="700" width="109" height="99">
<path d="M1042.38 700.043H934.686V798.796H1042.38V700.043Z" fill="white"/>
</mask>
<g mask="url(#mask38_75_269)">
<path d="M977.635 733.656C975.466 733.656 973.972 733.819 973.119 734.015V747.284C974.079 747.512 975.324 747.578 976.923 747.578C982.754 747.578 986.31 744.969 986.31 740.372C986.31 735.775 983.003 733.689 977.635 733.689V733.656Z" fill="#52256A"/>
<path fill-rule="evenodd" clip-rule="evenodd" d="M1005.01 767.661H997.226V748.458C997.226 744.611 997.155 741.872 996.977 739.329H1003.77L1004.02 744.741H1004.27C1005.79 740.731 1009.39 738.71 1012.69 738.71C1013.44 738.71 1013.9 738.775 1014.54 738.873V745.621C1013.9 745.491 1013.23 745.393 1012.27 745.393C1008.53 745.393 1005.97 747.61 1005.3 750.805C1005.15 751.457 1005.05 752.207 1005.05 753.022V767.661H1005.01ZM973.12 767.661H965.369V728.994C968.142 728.538 972.018 728.179 977.28 728.179C983.004 728.179 987.164 729.287 989.902 731.374C992.426 733.298 994.097 736.362 994.097 740.046C994.097 743.73 992.817 746.86 990.435 748.947C987.342 751.783 982.435 753.12 976.924 753.12C975.467 753.12 974.151 753.055 973.12 752.892V767.661ZM958.116 702.032C977.991 700.01 998.541 700.01 1018.42 702.032C1029.37 703.14 1038.18 711.063 1039.46 721.137C1041.85 739.785 1041.85 758.597 1039.46 777.213C1038.18 787.287 1029.37 795.177 1018.42 796.318C998.541 798.34 977.991 798.34 958.116 796.318C947.165 795.21 938.348 787.287 937.068 777.213C934.686 758.565 934.686 739.753 937.068 721.137C938.348 711.063 947.165 703.173 958.116 702.032Z" fill="#52256A"/>
</g>
<mask id="mask39_75_269" style="mask-type:luminance" maskUnits="userSpaceOnUse" x="948" y="112" width="81" height="77">
<path d="M1028.73 112.805H948.445V188.214H1028.73V112.805Z" fill="white"/>
</mask>
<g mask="url(#mask39_75_269)">
<path d="M1029.4 142.963L1020.55 112.773L987.52 120.859L982.65 128.749L972.73 128.684L948.553 150.788L972.73 172.893L982.65 172.827L987.556 180.717L1020.59 188.803L1029.44 158.613L1024.43 150.788L1029.44 142.963H1029.4ZM1008.71 124.087L994.205 147.039H965.192L983.432 130.02L1008.68 124.087H1008.71ZM994.205 154.537L1008.71 177.49L983.432 171.556L965.192 154.537H994.205ZM1001.24 150.788L1015.75 127.836L1022.75 150.788L1015.75 173.74L1001.24 150.788Z" fill="#52256A"/>
</g>
<mask id="mask40_75_269" style="mask-type:luminance" maskUnits="userSpaceOnUse" x="948" y="507" width="81" height="75">
<path d="M1028.73 507.949H948.445V581.566H1028.73V507.949Z" fill="white"/>
</mask>
<g mask="url(#mask40_75_269)">
<path d="M987.307 530.478V547.92L974.72 539.183L987.307 530.478ZM987.307 518.643L968.996 535.238L957.974 527.609L953.423 529.011L964.623 539.183L953.423 549.355L957.974 550.756L968.996 543.127L987.307 559.722L998.257 555.451V522.914L987.307 518.643ZM1008.21 507.949V570.774L948.41 562.591L1008.21 581.044L1028.16 573.448V515.546L1008.21 507.949Z" fill="#52256A"/>
</g>
<mask id="mask41_75_269" style="mask-type:luminance" maskUnits="userSpaceOnUse" x="1106" y="612" width="102" height="95">
<path d="M1207.85 612.766H1106.06V706.107H1207.85V612.766Z" fill="white"/>
</mask>
<g mask="url(#mask41_75_269)">
<path fill-rule="evenodd" clip-rule="evenodd" d="M1115.98 621.503L1124.3 682.633L1157.18 697.695L1190.07 682.633L1198.39 621.503H1115.98ZM1107.23 614.395C1108.12 613.483 1109.4 612.961 1110.71 612.961H1203.69C1205 612.961 1206.28 613.483 1207.17 614.395C1208.06 615.308 1208.45 616.547 1208.31 617.754L1199.03 685.958C1198.85 687.36 1197.89 688.599 1196.51 689.251L1159.32 706.302C1158 706.889 1156.47 706.889 1155.16 706.302L1117.97 689.251C1116.58 688.599 1115.62 687.393 1115.44 685.958L1106.16 617.754C1105.98 616.547 1106.41 615.308 1107.3 614.395H1107.23Z" fill="#52256A"/>
<path fill-rule="evenodd" clip-rule="evenodd" d="M1145.56 678.068V630.012H1154.84V685.404C1154.84 686.936 1153.95 688.338 1152.53 689.088C1151.1 689.837 1149.33 689.87 1147.9 689.088L1131.62 680.578L1136.24 673.178L1145.56 678.068Z" fill="#52256A"/>
<path fill-rule="evenodd" clip-rule="evenodd" d="M1159.53 630.013C1159.53 627.666 1161.63 625.742 1164.19 625.742H1187.44V634.251H1168.84V652.378L1184.1 649.281C1185.56 648.988 1187.05 649.346 1188.19 650.227C1189.29 651.14 1189.89 652.444 1189.75 653.813L1187.44 677.254C1187.3 678.721 1186.34 680.026 1184.88 680.678L1166.28 689.187L1162.12 681.558L1178.41 674.092L1179.94 658.834L1165.22 661.833C1163.83 662.127 1162.41 661.833 1161.31 660.986C1160.2 660.171 1159.56 658.964 1159.56 657.66V629.948L1159.53 630.013Z" fill="#52256A"/>
</g>
</g>
</g>
</g>
</svg>
