<svg width="1531" height="723" viewBox="0 0 1531 723" fill="none" xmlns="http://www.w3.org/2000/svg">
<mask id="mask0_15_24" style="mask-type:luminance" maskUnits="userSpaceOnUse" x="-282" y="0" width="2118" height="803">
<path d="M1835.94 0H-281.969V802.806H1835.94V0Z" fill="white"/>
</mask>
<g mask="url(#mask0_15_24)">
<mask id="mask1_15_24" style="mask-type:luminance" maskUnits="userSpaceOnUse" x="-282" y="0" width="2118" height="803">
<path d="M1835.94 0H-281.969V802.806H1835.94V0Z" fill="white"/>
</mask>
<g mask="url(#mask1_15_24)">
<mask id="mask2_15_24" style="mask-type:luminance" maskUnits="userSpaceOnUse" x="160" y="197" width="70" height="89">
<path d="M229.127 197.379H160.613V285.341H229.127V197.379Z" fill="white"/>
</mask>
<g mask="url(#mask2_15_24)">
<path d="M200.575 240.478C200.575 245.27 204.699 249.085 209.89 249.085C215.045 249.085 219.276 245.205 219.276 240.478C219.276 239.337 219.028 238.228 218.565 237.185C218.103 236.142 217.428 235.196 216.539 234.414C215.65 233.599 214.654 232.979 213.481 232.555C212.343 232.132 211.134 231.903 209.89 231.903C204.664 231.903 200.575 235.685 200.575 240.51V240.478ZM190.975 257.692C187.917 257.692 184.824 257.594 181.766 257.725C180.344 257.79 178.887 258.083 177.607 258.605C173.696 260.202 171.598 264.506 172.665 268.32C173.802 272.331 177.713 275.004 182.229 274.841C186.602 274.645 190.548 271.646 190.939 267.701C191.259 264.441 191.011 261.148 191.011 257.692H190.975ZM191.011 206.115C187.526 206.115 184.149 205.919 180.771 206.147C175.687 206.506 172.096 210.549 172.416 215.243C172.7 219.71 176.753 223.198 181.731 223.231C183.829 223.231 185.926 223.231 188.024 223.231H191.011V206.115ZM200.646 223.231C203.881 223.231 206.939 223.231 210.032 223.231C215.152 223.166 219.241 219.449 219.276 214.754C219.276 213.613 219.063 212.537 218.636 211.494C218.174 210.451 217.534 209.505 216.681 208.69C215.828 207.875 214.832 207.256 213.694 206.799C212.557 206.343 211.383 206.115 210.139 206.082C207.152 206.017 204.201 206.082 201.215 206.082C201.037 206.082 200.859 206.115 200.646 206.147V223.231ZM191.046 249.052V231.871C187.846 231.871 184.717 231.871 181.589 231.871C176.682 231.871 172.558 235.587 172.38 240.087C172.202 244.684 175.971 248.759 180.878 249.02C184.22 249.183 187.562 249.02 191.046 249.02V249.052ZM169.251 253.388C161.287 246.835 160.612 234.772 169.251 227.502C166.585 225.22 164.736 222.481 163.669 219.221C161.038 211.07 166.016 201.648 174.727 198.747C176.824 198.029 179.171 197.54 181.375 197.508C190.975 197.377 200.575 197.41 210.21 197.475C219.17 197.54 226.956 203.637 228.343 211.755C229.303 217.493 227.667 222.546 223.187 226.752C222.938 227.013 222.583 227.209 222.263 227.437C226.103 230.86 228.378 234.772 228.556 239.63C228.734 243.901 227.454 247.683 224.61 251.074C219.952 256.616 210.494 260.137 200.575 255.475C200.575 255.899 200.539 256.257 200.504 256.616C200.433 260.463 200.61 264.31 200.29 268.157C199.686 275.265 193.642 281.459 186.104 283.024C178.104 284.687 169.82 281.557 165.731 275.297C161.145 268.288 162.283 259.876 168.576 254.008C168.789 253.812 168.967 253.617 169.18 253.388H169.251Z" fill="#52256A"/>
</g>
<mask id="mask3_15_24" style="mask-type:luminance" maskUnits="userSpaceOnUse" x="-19" y="307" width="89" height="82">
<path d="M69.4164 307.312H-18.6875V388.102H69.4164V307.312Z" fill="white"/>
</mask>
<g mask="url(#mask3_15_24)">
<path d="M18.1791 341.741L15.4414 349.761H24.5433L21.7345 341.741C21.1657 340.144 20.7035 338.383 20.2412 336.753C20.1346 336.362 20.0279 336.003 19.9212 335.645H19.8146C19.6368 336.297 19.459 336.981 19.2813 337.699C18.9257 339.068 18.5702 340.47 18.1435 341.741H18.1791Z" fill="#52256A"/>
<path fill-rule="evenodd" clip-rule="evenodd" d="M28.8471 363.486L25.6472 354.26H14.3764L11.3188 363.486H4.63453L16.0119 330.949H24.2961L35.8158 363.486H28.8471ZM37.7357 333.394C37.7357 331.568 39.1934 330.166 41.3623 330.166C43.5311 330.166 44.9532 331.568 44.9888 333.394C44.9888 335.187 43.5666 336.589 41.2911 336.589C39.0157 336.589 37.7001 335.187 37.7001 333.394H37.7357ZM44.6333 339.947V363.454H38.0912V339.947H44.6333ZM0.794651 308.975C17.2919 307.279 34.358 307.279 50.8909 308.975C59.9928 309.92 67.317 316.473 68.3836 324.852C70.3747 340.338 70.3747 355.955 68.3836 371.441C67.317 379.82 59.9928 386.373 50.8909 387.319C34.3936 389.014 17.3275 389.014 0.794651 387.319C-8.30728 386.373 -15.6315 379.82 -16.6981 371.441C-18.6892 355.955 -18.6892 340.338 -16.6981 324.852C-15.6315 316.473 -8.30728 309.92 0.794651 308.975Z" fill="#52256A"/>
</g>
<mask id="mask4_15_24" style="mask-type:luminance" maskUnits="userSpaceOnUse" x="151" y="-1" width="87" height="71">
<path d="M237.805 -0.78125H151.656V69.4121H237.805V-0.78125Z" fill="white"/>
</mask>
<g mask="url(#mask4_15_24)">
<path d="M185.08 17.6094C183.337 17.6094 182.093 17.7398 181.453 17.9028V28.629C182.235 28.8247 183.231 28.8573 184.511 28.8573C189.24 28.8573 192.084 26.7381 192.084 23.0214C192.084 19.3047 189.417 17.6094 185.08 17.6094Z" fill="#52256A"/>
<path fill-rule="evenodd" clip-rule="evenodd" d="M206.447 45.6139C203.424 45.6139 200.722 44.8966 198.873 43.9837L200.118 39.8106C201.54 40.6257 204.278 41.4407 206.518 41.4407C209.291 41.4407 210.5 40.3975 210.5 38.8977C210.5 37.398 209.469 36.5504 206.411 35.5723C201.54 34.0074 199.478 31.5622 199.549 28.8887C199.549 24.846 203.175 21.6836 208.971 21.6836C211.744 21.6836 214.162 22.3356 215.584 23.0529L214.34 27.1282C213.273 26.574 211.282 25.8241 209.078 25.8241C206.873 25.8241 205.593 26.8022 205.593 28.2367C205.593 29.6712 206.766 30.3885 209.966 31.4318C214.482 32.9315 216.58 35.0506 216.615 38.4413C216.615 42.5818 213.095 45.6465 206.482 45.6465L206.447 45.6139ZM181.416 45.0922H175.159V13.859C177.399 13.4677 180.527 13.2069 184.794 13.2069C189.416 13.2069 192.794 14.0872 194.998 15.7825C197.06 17.3474 198.376 19.8252 198.376 22.7921C198.376 25.7589 197.345 28.3019 195.389 29.9972C192.865 32.312 188.918 33.3879 184.474 33.3879C183.301 33.3879 182.234 33.3553 181.416 33.1923V45.1248V45.0922ZM170.572 -7.95217C186.643 -9.6149 203.247 -9.6149 219.317 -7.95217C228.17 -7.0393 235.281 -0.64919 236.348 7.46885C238.268 22.5312 238.268 37.7567 236.348 52.819C235.317 60.9697 228.17 67.3598 219.317 68.2401C203.247 69.8702 186.643 69.8702 170.572 68.2401C161.719 67.3272 154.608 60.9371 153.542 52.819C151.622 37.7567 151.622 22.5312 153.542 7.46885C154.573 -0.681793 161.719 -7.0719 170.572 -7.95217Z" fill="#52256A"/>
</g>
<mask id="mask5_15_24" style="mask-type:luminance" maskUnits="userSpaceOnUse" x="155" y="412" width="81" height="74">
<path d="M235.348 412.129H155.066V485.746H235.348V412.129Z" fill="white"/>
</mask>
<g mask="url(#mask5_15_24)">
<path d="M182.16 443.001L179.707 450.173H187.885L185.396 443.001C184.898 441.566 184.471 440.001 184.08 438.534C183.974 438.208 183.902 437.849 183.796 437.523H183.689C183.511 438.11 183.369 438.73 183.191 439.349C182.871 440.555 182.551 441.827 182.16 442.968V443.001Z" fill="#52256A"/>
<path d="M209.111 444.566C205.52 444.566 204.026 447.566 203.777 449.718H213.875C213.91 447.761 212.986 444.566 209.111 444.566Z" fill="#52256A"/>
<path fill-rule="evenodd" clip-rule="evenodd" d="M219.35 451.185C219.35 452.196 219.243 452.946 219.172 453.435H203.777C203.919 457.249 207.19 458.88 210.852 458.88C213.554 458.88 215.474 458.521 217.216 457.934L218.07 461.618C216.079 462.368 213.341 462.955 210.034 462.955C202.568 462.955 198.195 458.717 198.195 452.261C198.195 446.425 202.07 440.916 209.43 440.916C216.79 440.916 219.35 446.556 219.35 451.185ZM191.759 462.466L188.88 454.185H178.782L176.044 462.466H170.036L180.24 433.287H187.671L198.017 462.466H191.795H191.759ZM172.524 413.595C187.315 412.062 202.639 412.062 217.43 413.595C225.572 414.442 232.149 420.311 233.109 427.809C234.887 441.698 234.887 455.685 233.109 469.573C232.149 477.072 225.572 482.973 217.43 483.788C202.639 485.32 187.315 485.32 172.524 483.788C164.383 482.94 157.805 477.072 156.845 469.573C155.067 455.685 155.067 441.665 156.845 427.809C157.805 420.311 164.383 414.41 172.524 413.595Z" fill="#52256A"/>
</g>
<mask id="mask6_15_24" style="mask-type:luminance" maskUnits="userSpaceOnUse" x="-28" y="700" width="108" height="99">
<path d="M79.9053 700.043H-27.7891V798.796H79.9053V700.043Z" fill="white"/>
</mask>
<g mask="url(#mask6_15_24)">
<path fill-rule="evenodd" clip-rule="evenodd" d="M42.5749 767.661H34.7884V748.458C34.7884 744.611 34.7173 741.872 34.5396 739.329H41.3305L41.5794 744.741H41.8282C43.3571 740.731 46.9481 738.71 50.2546 738.71C51.0013 738.71 51.4635 738.775 52.1035 738.873V745.621C51.4635 745.491 50.7879 745.393 49.828 745.393C46.0948 745.393 43.5349 747.61 42.8593 750.805C42.7171 751.457 42.6104 752.207 42.6104 753.022V767.661H42.5749ZM10.6825 767.661H2.93168V728.994C5.70493 728.538 9.58035 728.179 14.8424 728.179C20.5667 728.179 24.7266 729.287 27.4642 731.374C29.9886 733.298 31.6597 736.362 31.6597 740.046C31.6597 743.73 30.3797 746.86 27.9976 748.947C24.9043 751.783 19.9978 753.12 14.4869 753.12C13.0291 753.12 11.7136 753.055 10.6825 752.892V767.661ZM-4.32142 702.032C15.5535 700.01 36.104 700.01 55.9789 702.032C66.9296 703.14 75.7472 711.063 77.0271 721.137C79.4093 739.785 79.4093 758.597 77.0271 777.213C75.7472 787.287 66.9296 795.177 55.9789 796.318C36.104 798.34 15.5535 798.34 -4.32142 796.318C-15.2722 795.21 -24.0897 787.287 -25.3696 777.213C-27.7518 758.565 -27.7518 739.753 -25.3696 721.137C-24.0897 711.063 -15.2722 703.173 -4.32142 702.032Z" fill="#52256A"/>
</g>
<mask id="mask7_15_24" style="mask-type:luminance" maskUnits="userSpaceOnUse" x="-15" y="112" width="82" height="77">
<path d="M66.2546 112.805H-14.0273V188.214H66.2546V112.805Z" fill="white"/>
</mask>
<g mask="url(#mask7_15_24)">
<path d="M66.964 142.963L58.111 112.773L25.0809 120.859L20.21 128.749L10.2903 128.684L-13.8867 150.788L10.2903 172.893L20.21 172.827L25.1165 180.717L58.1465 188.803L66.9996 158.613L61.9864 150.788L66.9996 142.963H66.964ZM46.2358 124.087L31.7296 147.039H2.71719L20.9566 130.02L46.2002 124.087H46.2358ZM31.7296 154.537L46.2358 177.49L20.9566 171.556L2.71719 154.537H31.7296ZM38.8049 150.788L53.3111 127.836L60.3154 150.788L53.3111 173.74L38.8049 150.788Z" fill="#52256A"/>
</g>
<mask id="mask8_15_24" style="mask-type:luminance" maskUnits="userSpaceOnUse" x="-15" y="507" width="82" height="75">
<path d="M66.2546 507.949H-14.0273V581.566H66.2546V507.949Z" fill="white"/>
</mask>
<g mask="url(#mask8_15_24)">
<path d="M24.8336 530.478V547.92L12.2474 539.183L24.8336 530.478ZM24.8336 518.643L6.52311 535.238L-4.49876 527.609L-9.04972 529.011L2.1499 539.183L-9.04972 549.355L-4.49876 550.756L6.52311 543.127L24.8336 559.722L35.7844 555.451V522.914L24.8336 518.643ZM45.7752 507.949V570.774L-14.0273 562.591L45.7752 581.044L65.7212 573.448V515.546L45.7752 507.949Z" fill="#52256A"/>
</g>
<mask id="mask9_15_24" style="mask-type:luminance" maskUnits="userSpaceOnUse" x="143" y="612" width="103" height="95">
<path d="M245.413 612.766H143.621V706.107H245.413V612.766Z" fill="white"/>
</mask>
<g mask="url(#mask9_15_24)">
<path fill-rule="evenodd" clip-rule="evenodd" d="M153.54 621.503L161.86 682.633L194.748 697.695L227.636 682.633L235.955 621.503H153.54ZM144.794 614.395C145.683 613.483 146.963 612.961 148.278 612.961H241.253C242.568 612.961 243.848 613.483 244.737 614.395C245.626 615.308 246.017 616.547 245.875 617.754L236.595 685.958C236.418 687.36 235.458 688.599 234.071 689.251L196.881 706.302C195.566 706.889 194.037 706.889 192.721 706.302L155.531 689.251C154.145 688.599 153.185 687.393 153.007 685.958L143.727 617.754C143.549 616.547 143.976 615.308 144.865 614.395H144.794Z" fill="#52256A"/>
<path fill-rule="evenodd" clip-rule="evenodd" d="M183.121 678.068V630.012H192.401V685.404C192.401 686.936 191.512 688.338 190.09 689.088C188.667 689.837 186.89 689.87 185.468 689.088L169.184 680.578L173.806 673.178L183.121 678.068Z" fill="#52256A"/>
<path fill-rule="evenodd" clip-rule="evenodd" d="M197.059 630.013C197.059 627.666 199.156 625.742 201.716 625.742H224.969V634.251H206.374V652.378L221.627 649.281C223.084 648.988 224.578 649.346 225.715 650.227C226.818 651.14 227.422 652.444 227.28 653.813L224.969 677.254C224.827 678.721 223.867 680.026 222.409 680.678L203.814 689.187L199.654 681.558L215.938 674.092L217.467 658.834L202.747 661.833C201.361 662.127 199.939 661.833 198.836 660.986C197.734 660.171 197.094 658.964 197.094 657.66V629.948L197.059 630.013Z" fill="#52256A"/>
</g>
<mask id="mask10_15_24" style="mask-type:luminance" maskUnits="userSpaceOnUse" x="816" y="197" width="69" height="89">
<path d="M884.787 197.379H816.273V285.341H884.787V197.379Z" fill="white"/>
</mask>
<g mask="url(#mask10_15_24)">
<path d="M856.235 240.478C856.235 245.27 860.359 249.085 865.55 249.085C870.706 249.085 874.936 245.205 874.936 240.478C874.936 239.337 874.688 238.228 874.225 237.185C873.763 236.142 873.088 235.196 872.199 234.414C871.31 233.599 870.314 232.979 869.141 232.555C868.003 232.132 866.795 231.903 865.55 231.903C860.324 231.903 856.235 235.685 856.235 240.51V240.478ZM846.635 257.692C843.578 257.692 840.484 257.594 837.427 257.725C836.004 257.79 834.547 258.083 833.267 258.605C829.356 260.202 827.258 264.506 828.325 268.32C829.462 272.331 833.373 275.004 837.889 274.841C842.262 274.645 846.209 271.646 846.6 267.701C846.92 264.441 846.671 261.148 846.671 257.692H846.635ZM846.671 206.115C843.186 206.115 839.809 205.919 836.431 206.147C831.347 206.506 827.756 210.549 828.076 215.243C828.36 219.71 832.413 223.198 837.391 223.231C839.489 223.231 841.587 223.231 843.684 223.231H846.671V206.115ZM856.306 223.231C859.541 223.231 862.599 223.231 865.692 223.231C870.812 223.166 874.901 219.449 874.936 214.754C874.936 213.613 874.723 212.537 874.297 211.494C873.834 210.451 873.194 209.505 872.341 208.69C871.488 207.875 870.492 207.256 869.354 206.799C868.217 206.343 867.043 206.115 865.799 206.082C862.812 206.017 859.861 206.082 856.875 206.082C856.697 206.082 856.519 206.115 856.306 206.147V223.231ZM846.706 249.052V231.871C843.506 231.871 840.378 231.871 837.249 231.871C832.342 231.871 828.218 235.587 828.04 240.087C827.862 244.684 831.631 248.759 836.538 249.02C839.88 249.183 843.222 249.02 846.706 249.02V249.052ZM824.911 253.388C816.947 246.835 816.272 234.772 824.911 227.502C822.245 225.22 820.396 222.481 819.329 219.221C816.698 211.07 821.676 201.648 830.387 198.747C832.485 198.029 834.831 197.54 837.035 197.508C846.635 197.377 856.235 197.41 865.87 197.475C874.83 197.54 882.616 203.637 884.003 211.755C884.963 217.493 883.327 222.546 878.847 226.752C878.599 227.013 878.243 227.209 877.923 227.437C881.763 230.86 884.038 234.772 884.216 239.63C884.394 243.901 883.114 247.683 880.27 251.074C875.612 256.616 866.155 260.137 856.235 255.475C856.235 255.899 856.199 256.257 856.164 256.616C856.093 260.463 856.27 264.31 855.95 268.157C855.346 275.265 849.302 281.459 841.764 283.024C833.765 284.687 825.48 281.557 821.392 275.297C816.805 268.288 817.943 259.876 824.236 254.008C824.449 253.812 824.627 253.617 824.84 253.388H824.911Z" fill="#52256A"/>
</g>
<mask id="mask11_15_24" style="mask-type:luminance" maskUnits="userSpaceOnUse" x="636" y="307" width="90" height="82">
<path d="M725.077 307.312H636.973V388.102H725.077V307.312Z" fill="white"/>
</mask>
<g mask="url(#mask11_15_24)">
<path d="M673.804 341.741L671.066 349.761H680.168L677.359 341.741C676.791 340.144 676.328 338.383 675.866 336.753C675.76 336.362 675.653 336.003 675.546 335.645H675.44C675.262 336.297 675.084 336.981 674.906 337.699C674.551 339.068 674.195 340.47 673.769 341.741H673.804Z" fill="#52256A"/>
<path fill-rule="evenodd" clip-rule="evenodd" d="M684.508 363.486L681.308 354.26H670.037L666.979 363.486H660.295L671.673 330.949H679.957L691.476 363.486H684.508ZM693.396 333.394C693.396 331.568 694.854 330.166 697.023 330.166C699.192 330.166 700.614 331.568 700.649 333.394C700.649 335.187 699.227 336.589 696.952 336.589C694.676 336.589 693.361 335.187 693.361 333.394H693.396ZM700.294 339.947V363.454H693.752V339.947H700.294ZM656.42 308.975C672.917 307.279 689.983 307.279 706.516 308.975C715.618 309.92 722.942 316.473 724.009 324.852C726 340.338 726 355.955 724.009 371.441C722.942 379.82 715.618 386.373 706.516 387.319C690.019 389.014 672.953 389.014 656.42 387.319C647.318 386.373 639.994 379.82 638.927 371.441C636.936 355.955 636.936 340.338 638.927 324.852C639.994 316.473 647.318 309.92 656.42 308.975Z" fill="#52256A"/>
</g>
<mask id="mask12_15_24" style="mask-type:luminance" maskUnits="userSpaceOnUse" x="807" y="-1" width="87" height="71">
<path d="M893.426 -0.78125H807.277V69.4121H893.426V-0.78125Z" fill="white"/>
</mask>
<g mask="url(#mask12_15_24)">
<path d="M840.736 17.6094C838.994 17.6094 837.749 17.7398 837.109 17.9028V28.629C837.892 28.8247 838.887 28.8573 840.167 28.8573C844.896 28.8573 847.74 26.7381 847.74 23.0214C847.74 19.3047 845.074 17.6094 840.736 17.6094Z" fill="#52256A"/>
<path fill-rule="evenodd" clip-rule="evenodd" d="M862.103 45.6139C859.081 45.6139 856.378 44.8966 854.53 43.9837L855.774 39.8106C857.196 40.6257 859.934 41.4407 862.174 41.4407C864.947 41.4407 866.156 40.3975 866.156 38.8977C866.156 37.398 865.125 36.5504 862.067 35.5723C857.196 34.0074 855.134 31.5622 855.205 28.8887C855.205 24.846 858.832 21.6836 864.627 21.6836C867.4 21.6836 869.818 22.3356 871.24 23.0529L869.996 27.1282C868.929 26.574 866.938 25.8241 864.734 25.8241C862.529 25.8241 861.249 26.8022 861.249 28.2367C861.249 29.6712 862.423 30.3885 865.623 31.4318C870.138 32.9315 872.236 35.0506 872.271 38.4413C872.271 42.5818 868.751 45.6465 862.138 45.6465L862.103 45.6139ZM837.072 45.0922H830.815V13.859C833.055 13.4677 836.184 13.2069 840.45 13.2069C845.072 13.2069 848.45 14.0872 850.654 15.7825C852.716 17.3474 854.032 19.8252 854.032 22.7921C854.032 25.7589 853.001 28.3019 851.045 29.9972C848.521 32.312 844.574 33.3879 840.13 33.3879C838.957 33.3879 837.89 33.3553 837.072 33.1923V45.1248V45.0922ZM826.228 -7.95217C842.299 -9.6149 858.903 -9.6149 874.973 -7.95217C883.827 -7.0393 890.937 -0.64919 892.004 7.46885C893.924 22.5312 893.924 37.7567 892.004 52.819C890.973 60.9697 883.827 67.3598 874.973 68.2401C858.903 69.8702 842.299 69.8702 826.228 68.2401C817.375 67.3272 810.264 60.9371 809.198 52.819C807.278 37.7567 807.278 22.5312 809.198 7.46885C810.229 -0.681793 817.375 -7.0719 826.228 -7.95217Z" fill="#52256A"/>
</g>
<mask id="mask13_15_24" style="mask-type:luminance" maskUnits="userSpaceOnUse" x="810" y="412" width="82" height="74">
<path d="M891.009 412.129H810.727V485.746H891.009V412.129Z" fill="white"/>
</mask>
<g mask="url(#mask13_15_24)">
<path d="M837.82 443.001L835.367 450.173H843.545L841.056 443.001C840.558 441.566 840.132 440.001 839.74 438.534C839.634 438.208 839.563 437.849 839.456 437.523H839.349C839.172 438.11 839.029 438.73 838.852 439.349C838.532 440.555 838.212 441.827 837.82 442.968V443.001Z" fill="#52256A"/>
<path d="M864.771 444.566C861.18 444.566 859.686 447.566 859.438 449.718H869.535C869.57 447.761 868.646 444.566 864.771 444.566Z" fill="#52256A"/>
<path fill-rule="evenodd" clip-rule="evenodd" d="M875.01 451.185C875.01 452.196 874.903 452.946 874.832 453.435H859.437C859.579 457.249 862.85 458.88 866.512 458.88C869.214 458.88 871.134 458.521 872.877 457.934L873.73 461.618C871.739 462.368 869.001 462.955 865.695 462.955C858.228 462.955 853.855 458.717 853.855 452.261C853.855 446.425 857.73 440.916 865.09 440.916C872.45 440.916 875.01 446.556 875.01 451.185ZM847.384 462.466L844.504 454.185H834.407L831.669 462.466H825.66L835.864 433.287H843.26L853.606 462.466H847.384ZM828.185 413.595C842.975 412.062 858.299 412.062 873.09 413.595C881.232 414.442 887.809 420.311 888.769 427.809C890.547 441.698 890.547 455.685 888.769 469.573C887.809 477.072 881.232 482.973 873.09 483.788C858.299 485.32 842.975 485.32 828.185 483.788C820.043 482.94 813.465 477.072 812.505 469.573C810.727 455.685 810.727 441.665 812.505 427.809C813.465 420.311 820.043 414.41 828.185 413.595Z" fill="#52256A"/>
</g>
<mask id="mask14_15_24" style="mask-type:luminance" maskUnits="userSpaceOnUse" x="627" y="700" width="109" height="99">
<path d="M735.565 700.043H627.871V798.796H735.565V700.043Z" fill="white"/>
</mask>
<g mask="url(#mask14_15_24)">
<path fill-rule="evenodd" clip-rule="evenodd" d="M698.235 767.661H690.449V748.458C690.449 744.611 690.378 741.872 690.2 739.329H696.991L697.24 744.741H697.488C699.017 740.731 702.608 738.71 705.915 738.71C706.661 738.71 707.124 738.775 707.764 738.873V745.621C707.124 745.491 706.448 745.393 705.488 745.393C701.755 745.393 699.195 747.61 698.519 750.805C698.377 751.457 698.271 752.207 698.271 753.022V767.661H698.235ZM666.343 767.661H658.592V728.994C661.365 728.538 665.241 728.179 670.503 728.179C676.227 728.179 680.387 729.287 683.124 731.374C685.649 733.298 687.32 736.362 687.32 740.046C687.32 743.73 686.04 746.86 683.658 748.947C680.565 751.783 675.658 753.12 670.147 753.12C668.689 753.12 667.374 753.055 666.343 752.892V767.661ZM651.339 702.032C671.214 700.01 691.764 700.01 711.639 702.032C722.59 703.14 731.407 711.063 732.687 721.137C735.069 739.785 735.069 758.597 732.687 777.213C731.407 787.287 722.59 795.177 711.639 796.318C691.764 798.34 671.214 798.34 651.339 796.318C640.388 795.21 631.57 787.287 630.291 777.213C627.908 758.565 627.908 739.753 630.291 721.137C631.57 711.063 640.388 703.173 651.339 702.032Z" fill="#52256A"/>
</g>
<mask id="mask15_15_24" style="mask-type:luminance" maskUnits="userSpaceOnUse" x="641" y="112" width="81" height="77">
<path d="M721.911 112.805H641.629V188.214H721.911V112.805Z" fill="white"/>
</mask>
<g mask="url(#mask15_15_24)">
<path d="M722.585 142.963L713.732 112.773L680.702 120.859L675.831 128.749L665.911 128.684L641.734 150.788L665.911 172.893L675.831 172.827L680.738 180.717L713.768 188.803L722.621 158.613L717.608 150.788L722.621 142.963H722.585ZM701.893 124.087L687.386 147.039H658.374L676.613 130.02L701.857 124.087H701.893ZM687.386 154.537L701.893 177.49L676.613 171.556L658.374 154.537H687.386ZM694.462 150.788L708.968 127.836L715.972 150.788L708.968 173.74L694.462 150.788Z" fill="#52256A"/>
</g>
<mask id="mask16_15_24" style="mask-type:luminance" maskUnits="userSpaceOnUse" x="641" y="507" width="81" height="75">
<path d="M721.911 507.949H641.629V581.566H721.911V507.949Z" fill="white"/>
</mask>
<g mask="url(#mask16_15_24)">
<path d="M680.49 530.478V547.92L667.904 539.183L680.49 530.478ZM680.49 518.643L662.179 535.238L651.157 527.609L646.607 529.011L657.806 539.183L646.607 549.355L651.157 550.756L662.179 543.127L680.49 559.722L691.441 555.451V522.914L680.49 518.643ZM701.431 507.949V570.774L641.629 562.591L701.431 581.044L721.377 573.448V515.546L701.431 507.949Z" fill="#52256A"/>
</g>
<mask id="mask17_15_24" style="mask-type:luminance" maskUnits="userSpaceOnUse" x="799" y="612" width="103" height="95">
<path d="M901.07 612.766H799.277V706.107H901.07V612.766Z" fill="white"/>
</mask>
<g mask="url(#mask17_15_24)">
<path fill-rule="evenodd" clip-rule="evenodd" d="M809.197 621.503L817.517 682.633L850.404 697.695L883.292 682.633L891.612 621.503H809.197ZM800.415 614.395C801.304 613.483 802.584 612.961 803.899 612.961H896.874C898.19 612.961 899.469 613.483 900.358 614.395C901.247 615.308 901.638 616.547 901.496 617.754L892.216 685.958C892.039 687.36 891.079 688.599 889.692 689.251L852.502 706.302C851.187 706.889 849.658 706.889 848.342 706.302L811.152 689.251C809.766 688.599 808.806 687.393 808.628 685.958L799.348 617.754C799.171 616.547 799.597 615.308 800.486 614.395H800.415Z" fill="#52256A"/>
<path fill-rule="evenodd" clip-rule="evenodd" d="M838.777 678.068V630.012H848.057V685.404C848.057 686.936 847.168 688.338 845.746 689.088C844.324 689.837 842.546 689.87 841.124 689.088L824.84 680.578L829.462 673.178L838.777 678.068Z" fill="#52256A"/>
<path fill-rule="evenodd" clip-rule="evenodd" d="M852.715 630.013C852.715 627.666 854.813 625.742 857.372 625.742H880.625V634.251H862.03V652.378L877.283 649.281C878.741 648.988 880.234 649.346 881.372 650.227C882.474 651.14 883.078 652.444 882.936 653.813L880.625 677.254C880.483 678.721 879.523 680.026 878.065 680.678L859.47 689.187L855.31 681.558L871.594 674.092L873.123 658.834L858.404 661.833C857.017 662.127 855.595 661.833 854.493 660.986C853.39 660.171 852.75 658.964 852.75 657.66V629.948L852.715 630.013Z" fill="#52256A"/>
</g>
<mask id="mask18_15_24" style="mask-type:luminance" maskUnits="userSpaceOnUse" x="488" y="197" width="69" height="89">
<path d="M556.939 197.379H488.426V285.341H556.939V197.379Z" fill="white"/>
</mask>
<g mask="url(#mask18_15_24)">
<path d="M528.423 240.478C528.423 245.27 532.547 249.085 537.738 249.085C542.893 249.085 547.124 245.205 547.124 240.478C547.124 239.337 546.876 238.228 546.413 237.185C545.951 236.142 545.276 235.196 544.387 234.414C543.498 233.599 542.502 232.979 541.329 232.555C540.191 232.132 538.982 231.903 537.738 231.903C532.512 231.903 528.423 235.685 528.423 240.51V240.478ZM518.823 257.692C515.765 257.692 512.672 257.594 509.614 257.725C508.192 257.79 506.735 258.083 505.455 258.605C501.544 260.202 499.446 264.506 500.513 268.32C501.65 272.331 505.561 275.004 510.077 274.841C514.45 274.645 518.396 271.646 518.788 267.701C519.107 264.441 518.859 261.148 518.859 257.692H518.823ZM518.823 206.115C515.339 206.115 511.961 205.919 508.583 206.147C503.499 206.506 499.908 210.549 500.228 215.243C500.513 219.71 504.566 223.198 509.543 223.231C511.641 223.231 513.739 223.231 515.836 223.231H518.823V206.115ZM528.458 223.231C531.694 223.231 534.751 223.231 537.845 223.231C542.965 223.166 547.053 219.449 547.089 214.754C547.089 213.613 546.875 212.537 546.449 211.494C545.987 210.451 545.347 209.505 544.493 208.69C543.64 207.875 542.645 207.256 541.507 206.799C540.369 206.343 539.196 206.115 537.951 206.082C534.965 206.017 532.014 206.082 529.027 206.082C528.849 206.082 528.672 206.115 528.458 206.147V223.231ZM518.894 249.052V231.871C515.694 231.871 512.566 231.871 509.437 231.871C504.53 231.871 500.406 235.587 500.228 240.087C500.05 244.684 503.819 248.759 508.726 249.02C512.068 249.183 515.41 249.02 518.894 249.02V249.052ZM497.064 253.388C489.1 246.835 488.424 234.772 497.064 227.502C494.397 225.22 492.548 222.481 491.482 219.221C488.851 211.07 493.828 201.648 502.539 198.747C504.637 198.029 506.983 197.54 509.188 197.508C518.788 197.377 528.387 197.41 538.022 197.475C546.982 197.54 554.769 203.637 556.155 211.755C557.115 217.493 555.48 222.546 551 226.752C550.751 227.013 550.395 227.209 550.075 227.437C553.915 230.86 556.191 234.772 556.369 239.63C556.546 243.901 555.266 247.683 552.422 251.074C547.764 256.616 538.307 260.137 528.387 255.475C528.387 255.899 528.352 256.257 528.316 256.616C528.245 260.463 528.423 264.31 528.103 268.157C527.498 275.265 521.454 281.459 513.917 283.024C505.917 284.687 497.633 281.557 493.544 275.297C488.957 268.288 490.095 259.876 496.388 254.008C496.602 253.812 496.779 253.617 496.993 253.388H497.064Z" fill="#52256A"/>
</g>
<mask id="mask19_15_24" style="mask-type:luminance" maskUnits="userSpaceOnUse" x="309" y="307" width="89" height="82">
<path d="M397.229 307.312H309.125V388.102H397.229V307.312Z" fill="white"/>
</mask>
<g mask="url(#mask19_15_24)">
<path d="M345.992 341.741L343.254 349.761H352.356L349.547 341.741C348.978 340.144 348.516 338.383 348.054 336.753C347.947 336.362 347.84 336.003 347.734 335.645H347.627C347.449 336.297 347.272 336.981 347.094 337.699C346.738 339.068 346.383 340.47 345.956 341.741H345.992Z" fill="#52256A"/>
<path fill-rule="evenodd" clip-rule="evenodd" d="M356.695 363.486L353.495 354.26H342.225L339.167 363.486H332.483L343.86 330.949H352.144L363.664 363.486H356.695ZM365.584 333.394C365.584 331.568 367.041 330.166 369.21 330.166C371.379 330.166 372.801 331.568 372.837 333.394C372.837 335.187 371.415 336.589 369.139 336.589C366.864 336.589 365.548 335.187 365.548 333.394H365.584ZM372.481 339.947V363.454H365.939V339.947H372.481ZM328.607 308.975C345.104 307.279 362.171 307.279 378.703 308.975C387.805 309.92 395.129 316.473 396.196 324.852C398.187 340.338 398.187 355.955 396.196 371.441C395.129 379.82 387.805 386.373 378.703 387.319C362.206 389.014 345.14 389.014 328.607 387.319C319.505 386.373 312.181 379.82 311.114 371.441C309.123 355.955 309.123 340.338 311.114 324.852C312.181 316.473 319.505 309.92 328.607 308.975Z" fill="#52256A"/>
</g>
<mask id="mask20_15_24" style="mask-type:luminance" maskUnits="userSpaceOnUse" x="479" y="-1" width="87" height="71">
<path d="M565.613 -0.78125H479.465V69.4121H565.613V-0.78125Z" fill="white"/>
</mask>
<g mask="url(#mask20_15_24)">
<path d="M512.888 17.6094C511.146 17.6094 509.902 17.7398 509.262 17.9028V28.629C510.044 28.8247 511.039 28.8573 512.319 28.8573C517.048 28.8573 519.893 26.7381 519.893 23.0214C519.893 19.3047 517.226 17.6094 512.888 17.6094Z" fill="#52256A"/>
<path fill-rule="evenodd" clip-rule="evenodd" d="M534.255 45.6139C531.233 45.6139 528.53 44.8966 526.682 43.9837L527.926 39.8106C529.348 40.6257 532.086 41.4407 534.326 41.4407C537.099 41.4407 538.308 40.3975 538.308 38.8977C538.308 37.398 537.277 36.5504 534.219 35.5723C529.348 34.0074 527.286 31.5622 527.357 28.8887C527.357 24.846 530.984 21.6836 536.779 21.6836C539.552 21.6836 541.97 22.3356 543.392 23.0529L542.148 27.1282C541.081 26.574 539.09 25.8241 536.886 25.8241C534.681 25.8241 533.401 26.8022 533.401 28.2367C533.401 29.6712 534.575 30.3885 537.775 31.4318C542.29 32.9315 544.388 35.0506 544.423 38.4413C544.423 42.5818 540.903 45.6465 534.29 45.6465L534.255 45.6139ZM509.26 45.0922H503.002V13.859C505.242 13.4677 508.371 13.2069 512.638 13.2069C517.26 13.2069 520.637 14.0872 522.842 15.7825C524.904 17.3474 526.219 19.8252 526.219 22.7921C526.219 25.7589 525.188 28.3019 523.233 29.9972C520.708 32.312 516.762 33.3879 512.318 33.3879C511.144 33.3879 510.078 33.3553 509.26 33.1923V45.1248V45.0922ZM498.416 -7.95217C514.486 -9.6149 531.09 -9.6149 547.161 -7.95217C556.014 -7.0393 563.125 -0.64919 564.192 7.46885C566.111 22.5312 566.111 37.7567 564.192 52.819C563.16 60.9697 556.014 67.3598 547.161 68.2401C531.09 69.8702 514.486 69.8702 498.416 68.2401C489.563 67.3272 482.452 60.9371 481.385 52.819C479.465 37.7567 479.465 22.5312 481.385 7.46885C482.416 -0.681793 489.563 -7.0719 498.416 -7.95217Z" fill="#52256A"/>
</g>
<mask id="mask21_15_24" style="mask-type:luminance" maskUnits="userSpaceOnUse" x="482" y="412" width="82" height="74">
<path d="M563.161 412.129H482.879V485.746H563.161V412.129Z" fill="white"/>
</mask>
<g mask="url(#mask21_15_24)">
<path d="M509.973 443.001L507.52 450.173H515.697L513.208 443.001C512.71 441.566 512.284 440.001 511.893 438.534C511.786 438.208 511.715 437.849 511.608 437.523H511.502C511.324 438.11 511.182 438.73 511.004 439.349C510.684 440.555 510.364 441.827 509.973 442.968V443.001Z" fill="#52256A"/>
<path d="M536.958 444.566C533.367 444.566 531.874 447.566 531.625 449.718H541.722C541.758 447.761 540.834 444.566 536.958 444.566Z" fill="#52256A"/>
<path fill-rule="evenodd" clip-rule="evenodd" d="M547.198 451.185C547.198 452.196 547.091 452.946 547.02 453.435H531.625C531.767 457.249 535.038 458.88 538.7 458.88C541.402 458.88 543.322 458.521 545.064 457.934L545.918 461.618C543.927 462.368 541.189 462.955 537.882 462.955C530.416 462.955 526.043 458.717 526.043 452.261C526.043 446.425 529.918 440.916 537.278 440.916C544.638 440.916 547.198 446.556 547.198 451.185ZM519.572 462.466L516.692 454.185H506.595L503.857 462.466H497.848L508.052 433.287H515.448L525.794 462.466H519.572ZM500.337 413.595C515.128 412.062 530.452 412.062 545.242 413.595C553.384 414.442 559.962 420.311 560.922 427.809C562.699 441.698 562.699 455.685 560.922 469.573C559.962 477.072 553.384 482.973 545.242 483.788C530.452 485.32 515.128 485.32 500.337 483.788C492.195 482.94 485.617 477.072 484.658 469.573C482.88 455.685 482.88 441.665 484.658 427.809C485.617 420.311 492.195 414.41 500.337 413.595Z" fill="#52256A"/>
</g>
<mask id="mask22_15_24" style="mask-type:luminance" maskUnits="userSpaceOnUse" x="300" y="700" width="108" height="99">
<path d="M407.753 700.043H300.059V798.796H407.753V700.043Z" fill="white"/>
</mask>
<g mask="url(#mask22_15_24)">
<path fill-rule="evenodd" clip-rule="evenodd" d="M370.383 767.661H362.597V748.458C362.597 744.611 362.526 741.872 362.348 739.329H369.139L369.388 744.741H369.637C371.166 740.731 374.757 738.71 378.063 738.71C378.81 738.71 379.272 738.775 379.912 738.873V745.621C379.272 745.491 378.597 745.393 377.637 745.393C373.903 745.393 371.343 747.61 370.668 750.805C370.526 751.457 370.419 752.207 370.419 753.022V767.661H370.383ZM338.527 767.661H330.776V728.994C333.549 728.538 337.424 728.179 342.687 728.179C348.411 728.179 352.571 729.287 355.308 731.374C357.833 733.298 359.504 736.362 359.504 740.046C359.504 743.73 358.224 746.86 355.842 748.947C352.748 751.783 347.842 753.12 342.331 753.12C340.873 753.12 339.558 753.055 338.527 752.892V767.661ZM323.487 702.032C343.362 700.01 363.913 700.01 383.787 702.032C394.738 703.14 403.556 711.063 404.836 721.137C407.218 739.785 407.218 758.597 404.836 777.213C403.556 787.287 394.738 795.177 383.787 796.318C363.913 798.34 343.362 798.34 323.487 796.318C312.536 795.21 303.719 787.287 302.439 777.213C300.057 758.565 300.057 739.753 302.439 721.137C303.719 711.063 312.536 703.173 323.487 702.032Z" fill="#52256A"/>
</g>
<mask id="mask23_15_24" style="mask-type:luminance" maskUnits="userSpaceOnUse" x="313" y="112" width="82" height="77">
<path d="M394.102 112.805H313.82V188.214H394.102V112.805Z" fill="white"/>
</mask>
<g mask="url(#mask23_15_24)">
<path d="M394.777 142.963L385.924 112.773L352.893 120.859L348.022 128.749L338.103 128.684L313.926 150.788L338.103 172.893L348.022 172.827L352.929 180.717L385.959 188.803L394.812 158.613L389.799 150.788L394.812 142.963H394.777ZM374.084 124.087L359.578 147.039H330.565L348.805 130.02L374.048 124.087H374.084ZM359.578 154.537L374.084 177.49L348.805 171.556L330.565 154.537H359.578ZM366.653 150.788L381.159 127.836L388.163 150.788L381.159 173.74L366.653 150.788Z" fill="#52256A"/>
</g>
<mask id="mask24_15_24" style="mask-type:luminance" maskUnits="userSpaceOnUse" x="313" y="507" width="82" height="75">
<path d="M394.102 507.949H313.82V581.566H394.102V507.949Z" fill="white"/>
</mask>
<g mask="url(#mask24_15_24)">
<path d="M352.682 530.478V547.92L340.095 539.183L352.682 530.478ZM352.682 518.643L334.371 535.238L323.349 527.609L318.798 529.011L329.998 539.183L318.798 549.355L323.349 550.756L334.371 543.127L352.682 559.722L363.632 555.451V522.914L352.682 518.643ZM373.588 507.949V570.774L313.785 562.591L373.588 581.044L393.534 573.448V515.546L373.588 507.949Z" fill="#52256A"/>
</g>
<mask id="mask25_15_24" style="mask-type:luminance" maskUnits="userSpaceOnUse" x="471" y="612" width="103" height="95">
<path d="M573.222 612.766H471.43V706.107H573.222V612.766Z" fill="white"/>
</mask>
<g mask="url(#mask25_15_24)">
<path fill-rule="evenodd" clip-rule="evenodd" d="M481.349 621.503L489.669 682.633L522.556 697.695L555.444 682.633L563.764 621.503H481.349ZM472.602 614.395C473.491 613.483 474.771 612.961 476.087 612.961H569.062C570.377 612.961 571.657 613.483 572.546 614.395C573.435 615.308 573.826 616.547 573.684 617.754L564.404 685.958C564.226 687.36 563.266 688.599 561.88 689.251L524.69 706.302C523.374 706.889 521.845 706.889 520.53 706.302L483.34 689.251C481.953 688.599 480.993 687.393 480.815 685.958L471.536 617.754C471.358 616.547 471.785 615.308 472.673 614.395H472.602Z" fill="#52256A"/>
<path fill-rule="evenodd" clip-rule="evenodd" d="M510.965 678.068V630.012H520.244V685.404C520.244 686.936 519.356 688.338 517.933 689.088C516.511 689.837 514.733 689.87 513.311 689.088L497.027 680.578L501.649 673.178L510.965 678.068Z" fill="#52256A"/>
<path fill-rule="evenodd" clip-rule="evenodd" d="M524.902 630.013C524.902 627.666 527 625.742 529.56 625.742H552.813V634.251H534.218V652.378L549.47 649.281C550.928 648.988 552.421 649.346 553.559 650.227C554.661 651.14 555.266 652.444 555.124 653.813L552.813 677.254C552.67 678.721 551.71 680.026 550.253 680.678L531.658 689.187L527.498 681.558L543.782 674.092L545.311 658.834L530.591 661.833C529.204 662.127 527.782 661.833 526.68 660.986C525.578 660.171 524.938 658.964 524.938 657.66V629.948L524.902 630.013Z" fill="#52256A"/>
</g>
<mask id="mask26_15_24" style="mask-type:luminance" maskUnits="userSpaceOnUse" x="1471" y="197" width="70" height="89">
<path d="M1540.45 197.379H1471.93V285.341H1540.45V197.379Z" fill="white"/>
</mask>
<g mask="url(#mask26_15_24)">
<path d="M1511.9 240.478C1511.9 245.27 1516.02 249.085 1521.21 249.085C1526.37 249.085 1530.6 245.205 1530.6 240.478C1530.6 239.337 1530.35 238.228 1529.89 237.185C1529.43 236.142 1528.75 235.196 1527.86 234.414C1526.97 233.599 1525.98 232.979 1524.8 232.555C1523.67 232.132 1522.46 231.903 1521.21 231.903C1515.99 231.903 1511.9 235.685 1511.9 240.51V240.478ZM1502.3 257.692C1499.24 257.692 1496.15 257.594 1493.09 257.725C1491.67 257.79 1490.21 258.083 1488.93 258.605C1485.02 260.202 1482.92 264.506 1483.99 268.32C1485.12 272.331 1489.04 275.004 1493.55 274.841C1497.92 274.645 1501.87 271.646 1502.26 267.701C1502.58 264.441 1502.33 261.148 1502.33 257.692H1502.3ZM1502.33 206.115C1498.85 206.115 1495.47 205.919 1492.09 206.147C1487.01 206.506 1483.42 210.549 1483.74 215.243C1484.02 219.71 1488.08 223.198 1493.05 223.231C1495.15 223.231 1497.25 223.231 1499.35 223.231H1502.33V206.115ZM1511.97 223.231C1515.2 223.231 1518.26 223.231 1521.35 223.231C1526.47 223.166 1530.56 219.449 1530.6 214.754C1530.6 213.613 1530.39 212.537 1529.96 211.494C1529.5 210.451 1528.86 209.505 1528 208.69C1527.15 207.875 1526.15 207.256 1525.02 206.799C1523.88 206.343 1522.71 206.115 1521.46 206.082C1518.47 206.017 1515.52 206.082 1512.54 206.082C1512.36 206.082 1512.18 206.115 1511.97 206.147V223.231ZM1502.37 249.052V231.871C1499.17 231.871 1496.04 231.871 1492.91 231.871C1488 231.871 1483.88 235.587 1483.7 240.087C1483.52 244.684 1487.29 248.759 1492.2 249.02C1495.54 249.183 1498.88 249.02 1502.37 249.02V249.052ZM1480.57 253.388C1472.61 246.835 1471.93 234.772 1480.57 227.502C1477.91 225.22 1476.06 222.481 1474.99 219.221C1472.36 211.07 1477.34 201.648 1486.05 198.747C1488.15 198.029 1490.49 197.54 1492.7 197.508C1502.3 197.377 1511.9 197.41 1521.53 197.475C1530.49 197.54 1538.28 203.637 1539.66 211.755C1540.62 217.493 1538.99 222.546 1534.51 226.752C1534.26 227.013 1533.91 227.209 1533.59 227.437C1537.42 230.86 1539.7 234.772 1539.88 239.63C1540.06 243.901 1538.78 247.683 1535.93 251.074C1531.27 256.616 1521.82 260.137 1511.9 255.475C1511.9 255.899 1511.86 256.257 1511.83 256.616C1511.75 260.463 1511.93 264.31 1511.61 268.157C1511.01 275.265 1504.96 281.459 1497.43 283.024C1489.43 284.687 1481.14 281.557 1477.05 275.297C1472.47 268.288 1473.6 259.876 1479.9 254.008C1480.11 253.812 1480.29 253.617 1480.5 253.388H1480.57Z" fill="#52256A"/>
</g>
<mask id="mask27_15_24" style="mask-type:luminance" maskUnits="userSpaceOnUse" x="1292" y="307" width="89" height="82">
<path d="M1380.74 307.312H1292.63V388.102H1380.74V307.312Z" fill="white"/>
</mask>
<g mask="url(#mask27_15_24)">
<path d="M1329.47 341.741L1326.73 349.761H1335.83L1333.02 341.741C1332.45 340.144 1331.99 338.383 1331.53 336.753C1331.42 336.362 1331.32 336.003 1331.21 335.645H1331.1C1330.93 336.297 1330.75 336.981 1330.57 337.699C1330.21 339.068 1329.86 340.47 1329.43 341.741H1329.47Z" fill="#52256A"/>
<path fill-rule="evenodd" clip-rule="evenodd" d="M1340.17 363.486L1336.97 354.26H1325.7L1322.64 363.486H1315.96L1327.33 330.949H1335.62L1347.14 363.486H1340.17ZM1349.06 333.394C1349.06 331.568 1350.52 330.166 1352.68 330.166C1354.85 330.166 1356.28 331.568 1356.31 333.394C1356.31 335.187 1354.89 336.589 1352.61 336.589C1350.34 336.589 1349.02 335.187 1349.02 333.394H1349.06ZM1355.96 339.947V363.454H1349.41V339.947H1355.96ZM1312.08 308.975C1328.58 307.279 1345.65 307.279 1362.18 308.975C1371.28 309.92 1378.6 316.473 1379.67 324.852C1381.66 340.338 1381.66 355.955 1379.67 371.441C1378.6 379.82 1371.28 386.373 1362.18 387.319C1345.68 389.014 1328.61 389.014 1312.08 387.319C1302.98 386.373 1295.66 379.82 1294.59 371.441C1292.6 355.955 1292.6 340.338 1294.59 324.852C1295.66 316.473 1302.98 309.92 1312.08 308.975Z" fill="#52256A"/>
</g>
<mask id="mask28_15_24" style="mask-type:luminance" maskUnits="userSpaceOnUse" x="1462" y="-1" width="88" height="71">
<path d="M1549.09 -0.78125H1462.94V69.4121H1549.09V-0.78125Z" fill="white"/>
</mask>
<g mask="url(#mask28_15_24)">
<path d="M1496.36 17.6094C1494.62 17.6094 1493.37 17.7398 1492.73 17.9028V28.629C1493.51 28.8247 1494.51 28.8573 1495.79 28.8573C1500.52 28.8573 1503.36 26.7381 1503.36 23.0214C1503.36 19.3047 1500.7 17.6094 1496.36 17.6094Z" fill="#52256A"/>
<path fill-rule="evenodd" clip-rule="evenodd" d="M1517.76 45.6139C1514.74 45.6139 1512.04 44.8966 1510.19 43.9837L1511.43 39.8106C1512.86 40.6257 1515.59 41.4407 1517.83 41.4407C1520.61 41.4407 1521.82 40.3975 1521.82 38.8977C1521.82 37.398 1520.78 36.5504 1517.73 35.5723C1512.86 34.0074 1510.79 31.5622 1510.87 28.8887C1510.87 24.846 1514.49 21.6836 1520.29 21.6836C1523.06 21.6836 1525.48 22.3356 1526.9 23.0529L1525.66 27.1282C1524.59 26.574 1522.6 25.8241 1520.39 25.8241C1518.19 25.8241 1516.91 26.8022 1516.91 28.2367C1516.91 29.6712 1518.08 30.3885 1521.28 31.4318C1525.8 32.9315 1527.9 35.0506 1527.93 38.4413C1527.93 42.5818 1524.41 45.6465 1517.8 45.6465L1517.76 45.6139ZM1492.73 45.0922H1486.47V13.859C1488.71 13.4677 1491.84 13.2069 1496.11 13.2069C1500.73 13.2069 1504.11 14.0872 1506.31 15.7825C1508.38 17.3474 1509.69 19.8252 1509.69 22.7921C1509.69 25.7589 1508.66 28.3019 1506.71 29.9972C1504.18 32.312 1500.23 33.3879 1495.79 33.3879C1494.62 33.3879 1493.55 33.3553 1492.73 33.1923V45.1248V45.0922ZM1481.89 -7.95217C1497.96 -9.6149 1514.56 -9.6149 1530.63 -7.95217C1539.49 -7.0393 1546.6 -0.64919 1547.66 7.46885C1549.58 22.5312 1549.58 37.7567 1547.66 52.819C1546.63 60.9697 1539.49 67.3598 1530.63 68.2401C1514.56 69.8702 1497.96 69.8702 1481.89 68.2401C1473.04 67.3272 1465.92 60.9371 1464.86 52.819C1462.94 37.7567 1462.94 22.5312 1464.86 7.46885C1465.89 -0.681793 1473.04 -7.0719 1481.89 -7.95217Z" fill="#52256A"/>
</g>
<mask id="mask29_15_24" style="mask-type:luminance" maskUnits="userSpaceOnUse" x="1466" y="412" width="81" height="74">
<path d="M1546.67 412.129H1466.39V485.746H1546.67V412.129Z" fill="white"/>
</mask>
<g mask="url(#mask29_15_24)">
<path d="M1493.48 443.001L1491.03 450.173H1499.2L1496.72 443.001C1496.22 441.566 1495.79 440.001 1495.4 438.534C1495.29 438.208 1495.22 437.849 1495.12 437.523H1495.01C1494.83 438.11 1494.69 438.73 1494.51 439.349C1494.19 440.555 1493.87 441.827 1493.48 442.968V443.001Z" fill="#52256A"/>
<path d="M1520.43 444.566C1516.84 444.566 1515.35 447.566 1515.1 449.718H1525.2C1525.23 447.761 1524.31 444.566 1520.43 444.566Z" fill="#52256A"/>
<path fill-rule="evenodd" clip-rule="evenodd" d="M1530.67 451.185C1530.67 452.196 1530.56 452.946 1530.49 453.435H1515.1C1515.24 457.249 1518.51 458.88 1522.17 458.88C1524.87 458.88 1526.79 458.521 1528.54 457.934L1529.39 461.618C1527.4 462.368 1524.66 462.955 1521.35 462.955C1513.89 462.955 1509.51 458.717 1509.51 452.261C1509.51 446.425 1513.39 440.916 1520.75 440.916C1528.11 440.916 1530.67 446.556 1530.67 451.185ZM1503.04 462.466L1500.16 454.185H1490.07L1487.33 462.466H1481.32L1491.52 433.287H1498.92L1509.27 462.466H1503.04ZM1483.84 413.595C1498.64 412.062 1513.96 412.062 1528.75 413.595C1536.89 414.442 1543.47 420.311 1544.43 427.809C1546.21 441.698 1546.21 455.685 1544.43 469.573C1543.47 477.072 1536.89 482.973 1528.75 483.788C1513.96 485.32 1498.64 485.32 1483.84 483.788C1475.7 482.94 1469.13 477.072 1468.17 469.573C1466.39 455.685 1466.39 441.665 1468.17 427.809C1469.13 420.311 1475.7 414.41 1483.84 413.595Z" fill="#52256A"/>
</g>
<mask id="mask30_15_24" style="mask-type:luminance" maskUnits="userSpaceOnUse" x="1283" y="700" width="109" height="99">
<path d="M1391.23 700.043H1283.53V798.796H1391.23V700.043Z" fill="white"/>
</mask>
<g mask="url(#mask30_15_24)">
<path fill-rule="evenodd" clip-rule="evenodd" d="M1353.89 767.661H1346.11V748.458C1346.11 744.611 1346.03 741.872 1345.86 739.329H1352.65L1352.9 744.741H1353.15C1354.67 740.731 1358.26 738.71 1361.57 738.71C1362.32 738.71 1362.78 738.775 1363.42 738.873V745.621C1362.78 745.491 1362.1 745.393 1361.14 745.393C1357.41 745.393 1354.85 747.61 1354.18 750.805C1354.03 751.457 1353.93 752.207 1353.93 753.022V767.661H1353.89ZM1322 767.661H1314.25V728.994C1317.02 728.538 1320.9 728.179 1326.16 728.179C1331.88 728.179 1336.04 729.287 1338.78 731.374C1341.31 733.298 1342.98 736.362 1342.98 740.046C1342.98 743.73 1341.7 746.86 1339.31 748.947C1336.22 751.783 1331.31 753.12 1325.8 753.12C1324.35 753.12 1323.03 753.055 1322 752.892V767.661ZM1306.96 702.032C1326.83 700.01 1347.39 700.01 1367.26 702.032C1378.21 703.14 1387.03 711.063 1388.31 721.137C1390.69 739.785 1390.69 758.597 1388.31 777.213C1387.03 787.287 1378.21 795.177 1367.26 796.318C1347.39 798.34 1326.83 798.34 1306.96 796.318C1296.01 795.21 1287.19 787.287 1285.91 777.213C1283.53 758.565 1283.53 739.753 1285.91 721.137C1287.19 711.063 1296.01 703.173 1306.96 702.032Z" fill="#52256A"/>
</g>
<mask id="mask31_15_24" style="mask-type:luminance" maskUnits="userSpaceOnUse" x="1297" y="112" width="81" height="77">
<path d="M1377.57 112.805H1297.29V188.214H1377.57V112.805Z" fill="white"/>
</mask>
<g mask="url(#mask31_15_24)">
<path d="M1378.25 142.963L1369.39 112.773L1336.36 120.859L1331.49 128.749L1321.57 128.684L1297.4 150.788L1321.57 172.893L1331.49 172.827L1336.4 180.717L1369.43 188.803L1378.28 158.613L1373.27 150.788L1378.28 142.963H1378.25ZM1357.55 124.087L1343.05 147.039H1314.04L1332.28 130.02L1357.52 124.087H1357.55ZM1343.05 154.537L1357.55 177.49L1332.28 171.556L1314.04 154.537H1343.05ZM1350.12 150.788L1364.63 127.836L1371.63 150.788L1364.63 173.74L1350.12 150.788Z" fill="#52256A"/>
</g>
<mask id="mask32_15_24" style="mask-type:luminance" maskUnits="userSpaceOnUse" x="1297" y="507" width="81" height="75">
<path d="M1377.57 507.949H1297.29V581.566H1377.57V507.949Z" fill="white"/>
</mask>
<g mask="url(#mask32_15_24)">
<path d="M1336.15 530.478V547.92L1323.56 539.183L1336.15 530.478ZM1336.15 518.643L1317.84 535.238L1306.82 527.609L1302.27 529.011L1313.47 539.183L1302.27 549.355L1306.82 550.756L1317.84 543.127L1336.15 559.722L1347.1 555.451V522.914L1336.15 518.643ZM1357.09 507.949V570.774L1297.29 562.591L1357.09 581.044L1377.04 573.448V515.546L1357.09 507.949Z" fill="#52256A"/>
</g>
<mask id="mask33_15_24" style="mask-type:luminance" maskUnits="userSpaceOnUse" x="1454" y="612" width="103" height="95">
<path d="M1556.73 612.766H1454.94V706.107H1556.73V612.766Z" fill="white"/>
</mask>
<g mask="url(#mask33_15_24)">
<path fill-rule="evenodd" clip-rule="evenodd" d="M1464.82 621.503L1473.14 682.633L1506.03 697.695L1538.92 682.633L1547.24 621.503H1464.82ZM1456.08 614.395C1456.96 613.483 1458.24 612.961 1459.56 612.961H1552.53C1553.85 612.961 1555.13 613.483 1556.02 614.395C1556.91 615.308 1557.3 616.547 1557.16 617.754L1547.88 685.958C1547.7 687.36 1546.74 688.599 1545.35 689.251L1508.16 706.302C1506.85 706.889 1505.32 706.889 1504 706.302L1466.81 689.251C1465.43 688.599 1464.47 687.393 1464.29 685.958L1455.01 617.754C1454.83 616.547 1455.26 615.308 1456.15 614.395H1456.08Z" fill="#52256A"/>
<path fill-rule="evenodd" clip-rule="evenodd" d="M1494.44 678.068V630.012H1503.72V685.404C1503.72 686.936 1502.83 688.338 1501.41 689.088C1499.99 689.837 1498.21 689.87 1496.79 689.088L1480.5 680.578L1485.12 673.178L1494.44 678.068Z" fill="#52256A"/>
<path fill-rule="evenodd" clip-rule="evenodd" d="M1508.38 630.013C1508.38 627.666 1510.47 625.742 1513.03 625.742H1536.29V634.251H1517.69V652.378L1532.94 649.281C1534.4 648.988 1535.89 649.346 1537.03 650.227C1538.13 651.14 1538.74 652.444 1538.6 653.813L1536.29 677.254C1536.14 678.721 1535.18 680.026 1533.73 680.678L1515.13 689.187L1510.97 681.558L1527.25 674.092L1528.78 658.834L1514.06 661.833C1512.68 662.127 1511.25 661.833 1510.15 660.986C1509.05 660.171 1508.41 658.964 1508.41 657.66V629.948L1508.38 630.013Z" fill="#52256A"/>
</g>
<mask id="mask34_15_24" style="mask-type:luminance" maskUnits="userSpaceOnUse" x="1144" y="197" width="69" height="89">
<path d="M1212.6 197.379H1144.09V285.341H1212.6V197.379Z" fill="white"/>
</mask>
<g mask="url(#mask34_15_24)">
<path d="M1184.08 240.478C1184.08 245.27 1188.21 249.085 1193.4 249.085C1198.55 249.085 1202.78 245.205 1202.78 240.478C1202.78 239.337 1202.54 238.228 1202.07 237.185C1201.61 236.142 1200.94 235.196 1200.05 234.414C1199.16 233.599 1198.16 232.979 1196.99 232.555C1195.85 232.132 1194.64 231.903 1193.4 231.903C1188.17 231.903 1184.08 235.685 1184.08 240.51V240.478ZM1174.48 257.692C1171.43 257.692 1168.33 257.594 1165.27 257.725C1163.85 257.79 1162.39 258.083 1161.11 258.605C1157.2 260.202 1155.11 264.506 1156.17 268.32C1157.31 272.331 1161.22 275.004 1165.74 274.841C1170.11 274.645 1174.06 271.646 1174.45 267.701C1174.77 264.441 1174.52 261.148 1174.52 257.692H1174.48ZM1174.48 206.115C1171 206.115 1167.62 205.919 1164.24 206.147C1159.16 206.506 1155.57 210.549 1155.89 215.243C1156.17 219.71 1160.23 223.198 1165.2 223.231C1167.3 223.231 1169.4 223.231 1171.5 223.231H1174.48V206.115ZM1184.12 223.231C1187.35 223.231 1190.41 223.231 1193.5 223.231C1198.62 223.166 1202.71 219.449 1202.75 214.754C1202.75 213.613 1202.54 212.537 1202.11 211.494C1201.65 210.451 1201.01 209.505 1200.15 208.69C1199.3 207.875 1198.3 207.256 1197.17 206.799C1196.03 206.343 1194.86 206.115 1193.61 206.082C1190.62 206.017 1187.67 206.082 1184.69 206.082C1184.51 206.082 1184.33 206.115 1184.12 206.147V223.231ZM1174.55 249.052V231.871C1171.35 231.871 1168.23 231.871 1165.1 231.871C1160.19 231.871 1156.07 235.587 1155.89 240.087C1155.71 244.684 1159.48 248.759 1164.39 249.02C1167.73 249.183 1171.07 249.02 1174.55 249.02V249.052ZM1152.72 253.388C1144.76 246.835 1144.08 234.772 1152.72 227.502C1150.06 225.22 1148.21 222.481 1147.14 219.221C1144.51 211.07 1149.49 201.648 1158.2 198.747C1160.3 198.029 1162.64 197.54 1164.85 197.508C1174.45 197.377 1184.05 197.41 1193.68 197.475C1202.64 197.54 1210.43 203.637 1211.82 211.755C1212.78 217.493 1211.14 222.546 1206.66 226.752C1206.41 227.013 1206.06 227.209 1205.74 227.437C1209.58 230.86 1211.85 234.772 1212.03 239.63C1212.21 243.901 1210.93 247.683 1208.08 251.074C1203.42 256.616 1193.97 260.137 1184.05 255.475C1184.05 255.899 1184.01 256.257 1183.98 256.616C1183.91 260.463 1184.08 264.31 1183.76 268.157C1183.16 275.265 1177.11 281.459 1169.58 283.024C1161.58 284.687 1153.29 281.557 1149.2 275.297C1144.62 268.288 1145.76 259.876 1152.05 254.008C1152.26 253.812 1152.44 253.617 1152.65 253.388H1152.72Z" fill="#52256A"/>
</g>
<mask id="mask35_15_24" style="mask-type:luminance" maskUnits="userSpaceOnUse" x="964" y="307" width="89" height="82">
<path d="M1052.89 307.312H964.785V388.102H1052.89V307.312Z" fill="white"/>
</mask>
<g mask="url(#mask35_15_24)">
<path d="M1001.65 341.741L998.914 349.761H1008.02L1005.21 341.741C1004.64 340.144 1004.18 338.383 1003.71 336.753C1003.61 336.362 1003.5 336.003 1003.39 335.645H1003.29C1003.11 336.297 1002.93 336.981 1002.75 337.699C1002.4 339.068 1002.04 340.47 1001.62 341.741H1001.65Z" fill="#52256A"/>
<path fill-rule="evenodd" clip-rule="evenodd" d="M1012.36 363.486L1009.16 354.26H997.885L994.827 363.486H988.143L999.52 330.949H1007.8L1019.32 363.486H1012.36ZM1021.24 333.394C1021.24 331.568 1022.7 330.166 1024.87 330.166C1027.04 330.166 1028.46 331.568 1028.5 333.394C1028.5 335.187 1027.07 336.589 1024.8 336.589C1022.52 336.589 1021.21 335.187 1021.21 333.394H1021.24ZM1028.14 339.947V363.454H1021.6V339.947H1028.14ZM984.267 308.975C1000.76 307.279 1017.83 307.279 1034.36 308.975C1043.47 309.92 1050.79 316.473 1051.86 324.852C1053.85 340.338 1053.85 355.955 1051.86 371.441C1050.79 379.82 1043.47 386.373 1034.36 387.319C1017.87 389.014 1000.8 389.014 984.267 387.319C975.165 386.373 967.841 379.82 966.775 371.441C964.783 355.955 964.783 340.338 966.775 324.852C967.841 316.473 975.165 309.92 984.267 308.975Z" fill="#52256A"/>
</g>
<mask id="mask36_15_24" style="mask-type:luminance" maskUnits="userSpaceOnUse" x="1135" y="-1" width="87" height="71">
<path d="M1221.27 -0.78125H1135.12V69.4121H1221.27V-0.78125Z" fill="white"/>
</mask>
<g mask="url(#mask36_15_24)">
<path d="M1168.55 17.6094C1166.81 17.6094 1165.56 17.7398 1164.92 17.9028V28.629C1165.7 28.8247 1166.7 28.8573 1167.98 28.8573C1172.71 28.8573 1175.55 26.7381 1175.55 23.0214C1175.55 19.3047 1172.89 17.6094 1168.55 17.6094Z" fill="#52256A"/>
<path fill-rule="evenodd" clip-rule="evenodd" d="M1189.91 45.6139C1186.89 45.6139 1184.19 44.8966 1182.34 43.9837L1183.59 39.8106C1185.01 40.6257 1187.75 41.4407 1189.99 41.4407C1192.76 41.4407 1193.97 40.3975 1193.97 38.8977C1193.97 37.398 1192.94 36.5504 1189.88 35.5723C1185.01 34.0074 1182.95 31.5622 1183.02 28.8887C1183.02 24.846 1186.64 21.6836 1192.44 21.6836C1195.21 21.6836 1197.63 22.3356 1199.05 23.0529L1197.81 27.1282C1196.74 26.574 1194.75 25.8241 1192.55 25.8241C1190.34 25.8241 1189.06 26.8022 1189.06 28.2367C1189.06 29.6712 1190.23 30.3885 1193.43 31.4318C1197.95 32.9315 1200.05 35.0506 1200.08 38.4413C1200.08 42.5818 1196.56 45.6465 1189.95 45.6465L1189.91 45.6139ZM1164.92 45.0922H1158.66V13.859C1160.9 13.4677 1164.03 13.2069 1168.3 13.2069C1172.92 13.2069 1176.3 14.0872 1178.5 15.7825C1180.56 17.3474 1181.88 19.8252 1181.88 22.7921C1181.88 25.7589 1180.85 28.3019 1178.89 29.9972C1176.37 32.312 1172.42 33.3879 1167.98 33.3879C1166.8 33.3879 1165.74 33.3553 1164.92 33.1923V45.1248V45.0922ZM1154.08 -7.95217C1170.15 -9.6149 1186.75 -9.6149 1202.82 -7.95217C1211.67 -7.0393 1218.79 -0.64919 1219.85 7.46885C1221.77 22.5312 1221.77 37.7567 1219.85 52.819C1218.82 60.9697 1211.67 67.3598 1202.82 68.2401C1186.75 69.8702 1170.15 69.8702 1154.08 68.2401C1145.22 67.3272 1138.11 60.9371 1137.05 52.819C1135.13 37.7567 1135.13 22.5312 1137.05 7.46885C1138.08 -0.681793 1145.22 -7.0719 1154.08 -7.95217Z" fill="#52256A"/>
</g>
<mask id="mask37_15_24" style="mask-type:luminance" maskUnits="userSpaceOnUse" x="1138" y="412" width="81" height="74">
<path d="M1218.82 412.129H1138.54V485.746H1218.82V412.129Z" fill="white"/>
</mask>
<g mask="url(#mask37_15_24)">
<path d="M1165.63 443.001L1163.18 450.173H1171.36L1168.87 443.001C1168.37 441.566 1167.94 440.001 1167.55 438.534C1167.45 438.208 1167.38 437.849 1167.27 437.523H1167.16C1166.98 438.11 1166.84 438.73 1166.66 439.349C1166.34 440.555 1166.02 441.827 1165.63 442.968V443.001Z" fill="#52256A"/>
<path d="M1192.62 444.566C1189.03 444.566 1187.53 447.566 1187.29 449.718H1197.38C1197.42 447.761 1196.49 444.566 1192.62 444.566Z" fill="#52256A"/>
<path fill-rule="evenodd" clip-rule="evenodd" d="M1202.86 451.185C1202.86 452.196 1202.75 452.946 1202.68 453.435H1187.29C1187.43 457.249 1190.7 458.88 1194.36 458.88C1197.06 458.88 1198.98 458.521 1200.72 457.934L1201.58 461.618C1199.59 462.368 1196.85 462.955 1193.54 462.955C1186.08 462.955 1181.7 458.717 1181.7 452.261C1181.7 446.425 1185.58 440.916 1192.94 440.916C1200.3 440.916 1202.86 446.556 1202.86 451.185ZM1175.23 462.466L1172.35 454.185H1162.25L1159.52 462.466H1153.51L1163.71 433.287H1171.14L1181.49 462.466H1175.27H1175.23ZM1156 413.595C1170.79 412.062 1186.11 412.062 1200.9 413.595C1209.04 414.442 1215.62 420.311 1216.58 427.809C1218.36 441.698 1218.36 455.685 1216.58 469.573C1215.62 477.072 1209.04 482.973 1200.9 483.788C1186.11 485.32 1170.79 485.32 1156 483.788C1147.86 482.94 1141.28 477.072 1140.32 469.573C1138.54 455.685 1138.54 441.665 1140.32 427.809C1141.28 420.311 1147.86 414.41 1156 413.595Z" fill="#52256A"/>
</g>
<mask id="mask38_15_24" style="mask-type:luminance" maskUnits="userSpaceOnUse" x="955" y="700" width="109" height="99">
<path d="M1063.41 700.043H955.719V798.796H1063.41V700.043Z" fill="white"/>
</mask>
<g mask="url(#mask38_15_24)">
<path fill-rule="evenodd" clip-rule="evenodd" d="M1026.04 767.661H1018.26V748.458C1018.26 744.611 1018.19 741.872 1018.01 739.329H1024.8L1025.05 744.741H1025.3C1026.83 740.731 1030.42 738.71 1033.72 738.71C1034.47 738.71 1034.93 738.775 1035.57 738.873V745.621C1034.93 745.491 1034.26 745.393 1033.3 745.393C1029.56 745.393 1027 747.61 1026.33 750.805C1026.19 751.457 1026.08 752.207 1026.08 753.022V767.661H1026.04ZM994.151 767.661H986.4V728.994C989.174 728.538 993.049 728.179 998.311 728.179C1004.04 728.179 1008.2 729.287 1010.93 731.374C1013.46 733.298 1015.13 736.362 1015.13 740.046C1015.13 743.73 1013.85 746.86 1011.47 748.947C1008.37 751.783 1003.47 753.12 997.956 753.12C996.498 753.12 995.182 753.055 994.151 752.892V767.661ZM979.147 702.032C999.022 700.01 1019.57 700.01 1039.45 702.032C1050.4 703.14 1059.22 711.063 1060.5 721.137C1062.88 739.785 1062.88 758.597 1060.5 777.213C1059.22 787.287 1050.4 795.177 1039.45 796.318C1019.57 798.34 999.022 798.34 979.147 796.318C968.197 795.21 959.379 787.287 958.099 777.213C955.717 758.565 955.717 739.753 958.099 721.137C959.379 711.063 968.197 703.173 979.147 702.032Z" fill="#52256A"/>
</g>
<mask id="mask39_15_24" style="mask-type:luminance" maskUnits="userSpaceOnUse" x="969" y="112" width="81" height="77">
<path d="M1049.76 112.805H969.477V188.214H1049.76V112.805Z" fill="white"/>
</mask>
<g mask="url(#mask39_15_24)">
<path d="M1050.43 142.963L1041.58 112.773L1008.55 120.859L1003.68 128.749L993.759 128.684L969.582 150.788L993.759 172.893L1003.68 172.827L1008.59 180.717L1041.62 188.803L1050.47 158.613L1045.46 150.788L1050.47 142.963H1050.43ZM1029.74 124.087L1015.23 147.039H986.222L1004.46 130.02L1029.7 124.087H1029.74ZM1015.23 154.537L1029.74 177.49L1004.46 171.556L986.222 154.537H1015.23ZM1022.27 150.788L1036.78 127.836L1043.78 150.788L1036.78 173.74L1022.27 150.788Z" fill="#52256A"/>
</g>
<mask id="mask40_15_24" style="mask-type:luminance" maskUnits="userSpaceOnUse" x="969" y="507" width="81" height="75">
<path d="M1049.76 507.949H969.477V581.566H1049.76V507.949Z" fill="white"/>
</mask>
<g mask="url(#mask40_15_24)">
<path d="M1008.34 530.478V547.92L995.752 539.183L1008.34 530.478ZM1008.34 518.643L990.027 535.238L979.006 527.609L974.455 529.011L985.654 539.183L974.455 549.355L979.006 550.756L990.027 543.127L1008.34 559.722L1019.29 555.451V522.914L1008.34 518.643ZM1029.24 507.949V570.774L969.441 562.591L1029.24 581.044L1049.19 573.448V515.546L1029.24 507.949Z" fill="#52256A"/>
</g>
<mask id="mask41_15_24" style="mask-type:luminance" maskUnits="userSpaceOnUse" x="1127" y="612" width="102" height="95">
<path d="M1228.88 612.766H1127.09V706.107H1228.88V612.766Z" fill="white"/>
</mask>
<g mask="url(#mask41_15_24)">
<path fill-rule="evenodd" clip-rule="evenodd" d="M1137.01 621.503L1145.33 682.633L1178.22 697.695L1211.1 682.633L1219.42 621.503H1137.01ZM1128.26 614.395C1129.15 613.483 1130.43 612.961 1131.75 612.961H1224.72C1226.04 612.961 1227.32 613.483 1228.21 614.395C1229.09 615.308 1229.49 616.547 1229.34 617.754L1220.06 685.958C1219.89 687.36 1218.93 688.599 1217.54 689.251L1180.35 706.302C1179.03 706.889 1177.51 706.889 1176.19 706.302L1139 689.251C1137.61 688.599 1136.65 687.393 1136.48 685.958L1127.2 617.754C1127.02 616.547 1127.44 615.308 1128.33 614.395H1128.26Z" fill="#52256A"/>
<path fill-rule="evenodd" clip-rule="evenodd" d="M1166.59 678.068V630.012H1175.87V685.404C1175.87 686.936 1174.98 688.338 1173.56 689.088C1172.14 689.837 1170.36 689.87 1168.94 689.088L1152.65 680.578L1157.27 673.178L1166.59 678.068Z" fill="#52256A"/>
<path fill-rule="evenodd" clip-rule="evenodd" d="M1180.56 630.013C1180.56 627.666 1182.66 625.742 1185.22 625.742H1208.47V634.251H1189.88V652.378L1205.13 649.281C1206.59 648.988 1208.08 649.346 1209.22 650.227C1210.32 651.14 1210.93 652.444 1210.78 653.813L1208.47 677.254C1208.33 678.721 1207.37 680.026 1205.91 680.678L1187.32 689.187L1183.16 681.558L1199.44 674.092L1200.97 658.834L1186.25 661.833C1184.86 662.127 1183.44 661.833 1182.34 660.986C1181.24 660.171 1180.6 658.964 1180.6 657.66V629.948L1180.56 630.013Z" fill="#52256A"/>
</g>
</g>
</g>
</svg>
