<svg width="55" height="55" viewBox="0 0 55 55" fill="none" xmlns="http://www.w3.org/2000/svg">
<path d="M51.7917 55C45.4259 55 39.1366 53.6128 32.9236 50.8383C26.7106 48.0639 21.0579 44.1294 15.9653 39.0347C10.8727 33.9401 6.93917 28.2873 4.16472 22.0764C1.39028 15.8655 0.00203704 9.57611 0 3.20833C0 2.29167 0.305555 1.52778 0.916667 0.916667C1.52778 0.305555 2.29167 0 3.20833 0H15.5833C16.2963 0 16.9329 0.242407 17.4931 0.727222C18.0532 1.21204 18.3843 1.78444 18.4861 2.44444L20.4722 13.1389C20.5741 13.9537 20.5486 14.6412 20.3958 15.2014C20.2431 15.7616 19.963 16.2454 19.5556 16.6528L12.1458 24.1389C13.1644 26.0231 14.3733 27.8432 15.7728 29.5992C17.1722 31.3551 18.7132 33.0489 20.3958 34.6806C21.9745 36.2593 23.6296 37.7239 25.3611 39.0744C27.0926 40.425 28.9259 41.6594 30.8611 42.7778L38.0417 35.5972C38.5 35.1389 39.0989 34.7956 39.8383 34.5675C40.5778 34.3393 41.303 34.2752 42.0139 34.375L52.5556 36.5139C53.2685 36.7176 53.8542 37.0873 54.3125 37.6231C54.7708 38.1588 55 38.7567 55 39.4167V51.7917C55 52.7083 54.6944 53.4722 54.0833 54.0833C53.4722 54.6944 52.7083 55 51.7917 55Z" fill="white"/>
</svg>
