<svg width="49" height="60" viewBox="0 0 49 60" fill="none" xmlns="http://www.w3.org/2000/svg">
<path d="M19.3686 56.2105C21.0183 57.561 22.7387 58.7954 24.5 60C26.2651 58.8113 27.9772 57.547 29.6314 56.2105C32.389 53.9639 34.9842 51.5279 37.3979 48.9205C42.9621 42.8838 49 34.1325 49 24.309C49 21.1167 48.3663 17.9556 47.1351 15.0063C45.9038 12.057 44.0992 9.37724 41.8241 7.11994C39.5491 4.86264 36.8482 3.07205 33.8757 1.85041C30.9033 0.628771 27.7174 0 24.5 0C21.2826 0 18.0967 0.628771 15.1243 1.85041C12.1518 3.07205 9.45092 4.86264 7.17588 7.11994C4.90085 9.37724 3.09619 12.057 1.86495 15.0063C0.633711 17.9556 -4.79428e-08 21.1167 0 24.309C0 34.1325 6.03789 42.8811 11.6021 48.9205C14.0157 51.5288 16.6109 53.963 19.3686 56.2105ZM24.5 33.0872C22.1536 33.0872 19.9032 32.1624 18.2441 30.5162C16.5849 28.8699 15.6528 26.6371 15.6528 24.309C15.6528 21.9809 16.5849 19.7481 18.2441 18.1018C19.9032 16.4556 22.1536 15.5307 24.5 15.5307C26.8464 15.5307 29.0968 16.4556 30.7559 18.1018C32.4151 19.7481 33.3472 21.9809 33.3472 24.309C33.3472 26.6371 32.4151 28.8699 30.7559 30.5162C29.0968 32.1624 26.8464 33.0872 24.5 33.0872Z" fill="white"/>
</svg>
